<?xml version="1.0" standalone="no"?>
<!DOCTYPE svg PUBLIC "-//W3C//DTD SVG 1.1//EN" "http://www.w3.org/Graphics/SVG/1.1/DTD/svg11.dtd" >
<svg xmlns="http://www.w3.org/2000/svg" xmlns:xlink="http://www.w3.org/1999/xlink" version="1.1">
<metadata></metadata>
<defs>
<font id="monopolybold" horiz-adv-x="1028" >
<font-face units-per-em="2048" ascent="1536" descent="-512" />
<missing-glyph horiz-adv-x="477" />
<glyph horiz-adv-x="0" />
<glyph unicode="&#xd;" horiz-adv-x="1024" />
<glyph unicode=" "  horiz-adv-x="477" />
<glyph unicode="&#x09;" horiz-adv-x="477" />
<glyph unicode="&#xa0;" horiz-adv-x="477" />
<glyph unicode="!" horiz-adv-x="368" d="M0 -12q0 41 28.5 70.5t69.5 29.5t71 -29.5t30 -70.5t-30 -70t-71 -29t-69.5 29t-28.5 70zM18 238v1105h162v-1105h-162z" />
<glyph unicode="&#x22;" horiz-adv-x="565" d="M0 967v264h166v-264h-166zM231 967v264h166v-264h-166z" />
<glyph unicode="#" horiz-adv-x="1148" d="M0 268l47 162h184l29 84h-188l47 162h196l56 168h170l-56 -168h142l55 168h172l-55 -168h178l-47 -162h-187l-28 -84h190l-47 -162h-196l-56 -166h-172l58 166h-144l-55 -166h-170l55 166h-178zM403 430h142l28 84h-141z" />
<glyph unicode="$" horiz-adv-x="884" d="M0 221l143 78l21 -39q43 -82 137 -110v483q-51 25 -94 52.5t-74 63t-48 83t-17 110.5q0 51 17 100.5t48 89t74 68.5t94 43v152h162v-154q47 -12 87 -39.5t71 -62.5l28 -35l-127 -103l-26 35l-15.5 15.5t-17.5 13.5v-328q61 -29 114.5 -60.5t92.5 -74.5t60.5 -99.5 t21.5 -135.5q0 -66 -21.5 -126.5t-59.5 -110.5t-91.5 -86t-116.5 -52v-154h-162v146q-90 16 -165 66t-116 132zM229 942q0 -45 20.5 -73.5t51.5 -51.5v252q-33 -20 -52.5 -55t-19.5 -72zM463 164q57 27 92 83t35 120q0 76 -36 118.5t-91 71.5v-393z" />
<glyph unicode="%" horiz-adv-x="1134" d="M0 758q0 43 16.5 81t45 66.5t66.5 45t81 16.5t80 -16.5t65.5 -45t45 -66.5t16.5 -81t-16.5 -80t-44 -65.5t-65.5 -45t-81 -16.5t-82 16.5t-66.5 45t-44 65.5t-16.5 80zM41 0l686 967h199l-686 -967h-199zM162 758q0 -16 12 -30.5t35 -14.5q20 0 32.5 14t12.5 31 q0 21 -14 33q-14 14 -31 14q-18 0 -32.5 -14.5t-14.5 -32.5zM551 209q0 43 16.5 80t45 65.5t66.5 45t81 16.5q41 0 79 -16.5t66.5 -45t45 -65.5t16.5 -80t-16.5 -81t-45 -66.5t-65.5 -45t-80 -16.5t-81 16.5t-66.5 45t-45 66.5t-16.5 81zM713 209q0 -18 13 -32.5t34 -14.5 q16 0 30.5 14t14.5 33t-14 31q-12 14 -31 14q-18 0 -32.5 -13.5t-14.5 -31.5z" />
<glyph unicode="&#x26;" horiz-adv-x="1347" d="M0 291v35l2 2q6 98 46 187t112 161q29 29 60.5 51.5t66.5 42.5q-6 4 -19 16q-55 55 -84.5 126t-29.5 149t29.5 149.5t84.5 126.5q115 115 277 115q78 0 148.5 -29.5t125.5 -85.5q55 -55 85 -126.5t30 -149.5v-43h-162v43q0 94 -67 162q-66 66 -160 65q-96 0 -162 -65 q-66 -66 -66 -162q0 -94 66 -160q63 -63 154 -67l51 2v-164h-43q-78 0 -147.5 -29t-123.5 -82q-53 -53 -80.5 -119.5t-31.5 -140.5v-10q0 -78 29.5 -147.5t82.5 -123.5q53 -53 123 -82.5t148 -29.5q76 0 145.5 29.5t122.5 82.5t83 123t30 148q0 76 -27 141q-8 16 -16.5 32.5 t-18.5 33.5l-2 -2q-12 -10 -39.5 -33t-51 -50.5t-37 -54t0.5 -45.5l27 -34l-127 -101l-27 35q-47 57 -45 115.5t31 112t76 100.5t90 82q16 12 33.5 25.5t33.5 25.5l9 4q16 10 30.5 22.5t30.5 24.5l39 32.5t50.5 50.5t36.5 54.5t-1 44.5l-27 35l127 100l29 -34 q45 -59 44 -116.5t-30.5 -112t-76 -100.5t-91.5 -81l-2 -2q33 -53 54 -104q39 -92 38 -201q0 -111 -40.5 -209t-118.5 -176t-176.5 -119t-206.5 -41q-111 0 -209 41t-176 119t-119 176t-41 209z" />
<glyph unicode="'" horiz-adv-x="374" d="M0 967v264h166v-264h-166z" />
<glyph unicode="(" horiz-adv-x="501" d="M0 616q0 217 34 430.5t103 421.5h170q-72 -209 -108.5 -421.5t-36.5 -430.5q0 -221 37 -433t108 -421h-170q-70 207 -103.5 421t-33.5 433z" />
<glyph unicode=")" horiz-adv-x="487" d="M0 -238q72 209 108.5 421t36.5 433q0 217 -36.5 430.5t-108.5 421.5h170q70 -209 103.5 -421.5t33.5 -430.5q0 -219 -33.5 -433t-103.5 -421h-170z" />
<glyph unicode="*" horiz-adv-x="819" d="M0 823l166 97l-166 96l80 141l168 -96v192h162v-192l168 96l79 -141l-165 -96l165 -97l-79 -139l-168 96v-192h-162v192l-168 -96z" />
<glyph unicode="+" horiz-adv-x="925" d="M0 391v162h291v291h162v-291h288v-162h-288v-289h-162v289h-291z" />
<glyph unicode="," horiz-adv-x="438" d="M0 78q0 41 28.5 69.5t69.5 28.5t71 -28.5t30 -69.5v-58q0 -59 -42 -100t-102 -41v109q-25 12 -40 36.5t-15 53.5z" />
<glyph unicode="-" horiz-adv-x="925" d="M0 391v162h741v-162h-741z" />
<glyph unicode="." horiz-adv-x="450" d="M0 78q0 41 28.5 69.5t69.5 28.5t71 -28.5t30 -69.5t-30 -69.5t-71 -28.5t-69.5 28.5t-28.5 69.5z" />
<glyph unicode="/" horiz-adv-x="925" d="M0 -238l569 1706h172l-61 -182l-463 -1382l-47 -142h-170z" />
<glyph unicode="0" horiz-adv-x="1179" d="M0 616q0 129 37 250q25 82 65.5 153t98 123t131.5 81.5t164 29.5t163.5 -29.5t132 -81.5t99.5 -123t65 -153q37 -121 37 -250t-37 -251q-25 -82 -65.5 -152t-99 -122t-132 -81.5t-163.5 -29.5t-164 29.5t-131.5 81.5t-98.5 122t-65 152q-37 123 -37 251zM162 616 q0 -102 28 -204q16 -55 44 -104.5t66 -86.5t86 -58.5t110 -21.5q61 0 110 21.5t87 58.5t64.5 86t43.5 105q31 98 30 204q0 104 -30 203q-16 55 -43 104.5t-65 86.5t-87 59.5t-110 22.5t-109.5 -22.5t-86.5 -59.5t-65.5 -86.5t-44.5 -104.5q-29 -102 -28 -203z" />
<glyph unicode="1" horiz-adv-x="501" d="M0 1069l41 162h115h2h4h4h4h4h4h4h6h5h4h4h2h2h4h4h4h4h6h4h5h4h4h4h4h4h4h4h6h4h5h4h4h4h4h4h4h6h4h4v-1231h-161v1069h-156z" />
<glyph unicode="2" horiz-adv-x="931" d="M0 946q12 53 39 98.5t63 83.5q115 115 277 115t276 -115q55 -55 85 -126.5t30 -149.5q0 -72 -20 -133q-23 -66 -66 -117l-385 -450h465v-162h-717h-6l-33 71l4 5l547 639q25 31 37 67q12 33 12 72v8q0 94 -67 162q-66 66 -162 65q-45 0 -87 -16t-75 -49q-45 -47 -59 -107 v-2z" />
<glyph unicode="3" horiz-adv-x="964" d="M0 291l158 41v-2q14 -66 65 -115q74 -74 178 -74q102 0 181 74q74 74 73 178q0 104 -73 178q-74 74 -181 74h-43v164h43q59 0 101 41q41 41 41 100q0 57 -41 99q-43 43 -101 43q-55 0 -98 -43q-29 -25 -37 -62v-2l-157 41v2q23 82 79 135q41 43 97.5 66.5t115.5 23.5 q125 0 215 -90q43 -41 67 -97t24 -116q0 -59 -21.5 -112.5t-60.5 -94.5q37 -23 71 -57q59 -59 90 -134t31 -159t-30.5 -158.5t-90.5 -134.5q-59 -59 -135 -89.5t-160 -30.5t-158.5 30.5t-133.5 89.5q-80 80 -109 191z" />
<glyph unicode="4" horiz-adv-x="1046" d="M0 461l37 45l151 190l304 383l120 152h119v-699h172v-161h-172v-371h-162v371h-503zM264 532h305v386l-43 -54z" />
<glyph unicode="5" horiz-adv-x="970" d="M0 231v2l150 60l2 -4q29 -70 92 -111q61 -43 141 -43q104 0 178 74t74 178q0 53 -16.5 103.5t-57.5 87.5q-35 31 -84 51q-55 16 -104 16q-59 0 -117.5 -20.5t-99.5 -65.5l-25 -27l-123 62l6 37l115 600h553v-160h-418l-55 -293q80 29 164 29t157 -27q80 -29 142 -84 q66 -61 96.5 -141t30.5 -168q0 -84 -32 -158.5t-91 -134.5q-59 -59 -134 -90t-159 -31q-127 0 -233 72q-104 70 -152 186z" />
<glyph unicode="6" horiz-adv-x="1001" d="M0 393q0 125 68 228l356 610h188l-247 -426q12 2 24 3t27 1q82 0 157.5 -32t135.5 -91q59 -59 89.5 -134t30.5 -159t-30.5 -158.5t-89.5 -134.5q-59 -59 -135 -89.5t-158 -30.5q-84 0 -160 30.5t-135 89.5t-90 134t-31 159zM162 393q0 -104 74 -178q78 -74 180 -74 q49 0 96 19.5t82 54.5q74 74 74 178t-74 178q-35 37 -82 55.5t-96 18.5q-106 0 -180 -74t-74 -178z" />
<glyph unicode="7" horiz-adv-x="907" d="M0 1069v162h739l-63 -119q-131 -240 -215 -506q-49 -152 -81 -300t-52 -306h-164q23 172 55.5 332t85.5 323q35 106 77 210t89 204h-471z" />
<glyph unicode="8" horiz-adv-x="989" d="M0 393q0 104 50.5 198.5t142.5 151.5q-82 86 -82 207q0 61 24.5 116.5t66.5 96.5t97 65.5t117 24.5q61 0 115.5 -24.5t96.5 -65.5t66.5 -96t24.5 -117q0 -121 -82 -207q92 -57 142 -151t50 -199q0 -86 -32.5 -160.5t-89 -131t-132 -89t-159.5 -32.5q-86 0 -161 32.5 t-132 88t-90 131t-33 161.5zM162 393q0 -53 20.5 -98t55 -80t81 -54.5t97.5 -19.5t96 19.5t80 54.5t55.5 80t20.5 98q0 51 -20.5 97.5t-54.5 80t-81 54t-98 20.5q-53 0 -98.5 -20.5t-80 -54t-54 -80t-19.5 -97.5zM274 950q0 -59 41 -100t99 -41h2q55 0 98 41t43 100 q0 55 -43 98.5t-98 43.5q-59 0 -100.5 -43t-41.5 -99z" />
<glyph unicode="9" horiz-adv-x="995" d="M0 838q0 84 33 159.5t89 132t132 90t162 33.5t160.5 -32.5t131 -90t89 -132t32.5 -160.5q0 -125 -67 -226l-359 -612h-186l250 426q-14 -2 -26.5 -2h-24.5q-86 0 -161 32.5t-132 88t-90 131.5t-33 162zM162 838q0 -53 20.5 -98.5t55 -80t81 -54t97.5 -19.5t96 19.5t80 54 t55.5 79.5t20.5 99q0 51 -20.5 97t-54.5 81t-80 55.5t-97 20.5t-97.5 -19.5t-81 -54.5t-55 -81t-20.5 -99z" />
<glyph unicode=":" horiz-adv-x="450" d="M0 78q0 41 28.5 69.5t69.5 28.5t71 -28.5t30 -69.5t-30 -69.5t-71 -28.5t-69.5 28.5t-28.5 69.5zM0 762q0 41 28.5 69.5t69.5 28.5t71 -28.5t30 -69.5t-30 -69.5t-71 -28.5t-69.5 28.5t-28.5 69.5z" />
<glyph unicode=";" horiz-adv-x="405" d="M0 78q0 41 28.5 69.5t69.5 28.5t71 -28.5t30 -69.5v-58q0 -59 -42 -100t-102 -41v109q-25 12 -40 36.5t-15 53.5zM0 762q0 41 28.5 69.5t69.5 28.5t71 -28.5t30 -69.5t-30 -69.5t-71 -28.5t-69.5 28.5t-28.5 69.5z" />
<glyph unicode="&#x3c;" horiz-adv-x="747" d="M0 616l281 316l211 242v-244l-275 -314l275 -313v-246l-211 242z" />
<glyph unicode="=" horiz-adv-x="901" d="M0 268v162h741v-162h-741zM0 514v162h741v-162h-741z" />
<glyph unicode="&#x3e;" horiz-adv-x="729" d="M0 57v246l274 313l-274 314v244l211 -242l281 -316l-281 -317z" />
<glyph unicode="?" horiz-adv-x="976" d="M0 1116l2 4q49 111 153.5 176.5t225.5 65.5q86 0 161.5 -34t133 -91t90.5 -133t33 -162q0 -80 -25.5 -143.5t-66.5 -115.5t-96.5 -96t-112.5 -85q-10 -6 -32 -21.5t-43.5 -34t-38.5 -36t-17 -29.5q0 -16 10 -25.5t24 -9.5q12 0 23.5 9.5t11.5 25.5h162q0 -41 -15.5 -77 t-42 -63.5t-62.5 -43t-77 -15.5t-76.5 16.5t-62 43t-42 62.5t-15.5 77q0 63 31.5 109.5t80 84t104.5 72.5t104 77t80 94t32 124q0 51 -20.5 98t-55.5 82t-81 55.5t-99 20.5q-72 0 -136.5 -40t-97.5 -107v-2zM301 -12q0 41 29.5 70.5t70.5 29.5t70 -29.5t29 -70.5t-29 -70 t-70 -29t-70.5 29t-29.5 70z" />
<glyph unicode="@" horiz-adv-x="1705" d="M0 616q0 156 60.5 295.5t165 244t243.5 164.5t295 60t295 -60t243.5 -164.5t165 -244t60.5 -295.5q0 -72 -13.5 -145.5t-44 -134t-83 -99t-130.5 -38.5q-63 0 -116 30.5t-88 83.5q-59 -55 -133 -84.5t-156 -29.5q-86 0 -163 33.5t-133 90t-89 132t-33 161.5t33 162 t90 132.5t133 90t162 33.5t161.5 -33.5t132 -90t90.5 -132.5t34 -162v-180q0 -31 22.5 -53.5t52.5 -22.5q33 0 54.5 27t34 67t16.5 84t4 78q0 123 -48 232.5t-131 191.5t-191.5 129.5t-231.5 47.5t-231.5 -47.5t-191.5 -129.5t-131 -191.5t-48 -232.5q0 -125 48 -234.5 t130 -191t191.5 -129t232.5 -47.5q96 2 189.5 31t170.5 88l35 27l96 -129l-34 -27q-98 -74 -216 -112.5t-241 -38.5q-158 0 -296 60t-242.5 163.5t-165 243t-60.5 296.5zM508 616q0 -53 20.5 -99t55 -81t81 -55.5t99.5 -20.5t99 20.5t81 55.5t55.5 81t20.5 99 q0 51 -20.5 97.5t-55.5 81t-82 56t-98 21.5q-53 0 -99.5 -20.5t-81 -55t-55 -81.5t-20.5 -99z" />
<glyph unicode="A" horiz-adv-x="1212" d="M0 0l29 72l469 1159h69l469 -1159l29 -72h-57h-117l-131 322h-455l-131 -322h-117h-57zM371 483h323l-162 402z" />
<glyph unicode="B" horiz-adv-x="923" d="M0 0v1231h401q63 0 122 -23.5t104 -68.5q94 -94 94 -226q0 -133 -94 -227l-2 -2q10 -10 22 -19.5t23 -19.5q53 -53 81.5 -121.5t28.5 -146.5q0 -76 -28.5 -144.5t-81.5 -121.5q-98 -96 -232 -109v-2h-438zM162 162h203h36q90 0 154 63q61 66 61 152q0 88 -61 153 q-63 63 -154 64h-239v-432zM162 756h239q66 0 111 45q47 47 47 112q0 63 -47 111q-45 45 -111 45h-239v-313z" />
<glyph unicode="C" horiz-adv-x="1333" d="M0 616q0 127 48 243t138 208q92 90 207 138t244 48q86 0 167 -22.5t152 -63.5q68 -39 123.5 -92t96.5 -119l-138 -86q-31 47 -71.5 87t-89.5 69q-113 66 -240 66q-96 0 -182 -37t-154 -103q-68 -68 -103.5 -154.5t-35.5 -181.5q0 -96 35.5 -183t103.5 -152 q68 -68 154 -104t182 -36q131 0 240 64q53 33 98 77t76 99l141 -80q-88 -152 -236 -238q-72 -41 -152.5 -63.5t-166.5 -22.5q-129 0 -243.5 48.5t-207.5 140.5q-90 90 -138 205.5t-48 244.5z" />
<glyph unicode="D" horiz-adv-x="1120" d="M0 0v1231h362q123 0 236 -46t201 -134q86 -86 133 -199t47 -236t-47 -235.5t-133 -200.5q-88 -88 -201 -134t-236 -46h-362zM162 162h200q92 0 174 33.5t148 99.5q63 66 98 147.5t35 173.5t-34.5 174t-98.5 146q-66 66 -147.5 99.5t-174.5 33.5h-200v-907z" />
<glyph unicode="E" horiz-adv-x="774" d="M0 0v1231h584v-162h-422v-446h319v-164h-319v-297h422v-162h-584z" />
<glyph unicode="F" horiz-adv-x="774" d="M0 0v1231h584v-162h-422v-446h319v-164h-319v-115v-182v-162h-162z" />
<glyph unicode="G" horiz-adv-x="1439" d="M4 544q-4 34 -4 69q0 85 23 167q33 123 108.5 223.5t185.5 163.5l21 11q139 75 295 75h4h2q156 0 297 -75l20 -11q70 -41 131 -100l-114 -115q-41 41 -99 76q-111 63 -235 64h-2q-127 0 -238 -64q-82 -47 -139 -122t-82 -167q-17 -61 -17 -123q0 -31 5 -62 q12 -93 59 -175q47 -84 122 -140.5t167 -80.5q61 -17 123 -17q31 0 63 5q93 12 174 59q113 61 175 174q41 72 57 160h-469v161h635l2 -79v-14q0 -79 -20 -154q-23 -82 -64 -154q-41 -74 -101.5 -133.5t-132.5 -102.5l-20 -10q-106 -57 -226 -71q-36 -4 -73 -4q-82 0 -164 22 q-123 33 -223 109.5t-164 187.5l-12 18v2q-57 106 -70 227z" />
<glyph unicode="H" horiz-adv-x="911" d="M0 0v1231h37h88h37v-610h381v610h37h88h37v-1231h-37h-88h-37v457h-381v-457h-37h-88h-37z" />
<glyph unicode="I" horiz-adv-x="372" d="M0 0v1231h125h37v-1231h-162z" />
<glyph unicode="J" horiz-adv-x="407" d="M-207 -360l6 4q25 16 47.5 32.5t44.5 38.5q68 68 104 154t36 182v1180h162v-1180q0 -129 -47.5 -243.5t-139.5 -206.5q-57 -57 -127 -99l-4 -2z" />
<glyph unicode="K" horiz-adv-x="1056" d="M0 0v1231h162v-490l491 490h230l-586 -586l645 -645h-229l-551 551v-551h-162z" />
<glyph unicode="L" horiz-adv-x="790" d="M0 0v1231h162v-1069h459v-37v-125h-621z" />
<glyph unicode="M" horiz-adv-x="1357" d="M0 0v1231h115l467 -471l469 471h114v-1231h-164v954l-419 -424l-420 424v-954h-162z" />
<glyph unicode="N" horiz-adv-x="1196" d="M0 0v1231h121l721 -916v916h164v-1231h-121l-723 915v-915h-162z" />
<glyph unicode="O" horiz-adv-x="1431" d="M0 616q0 127 48 243t138 208q92 90 207 138t244 48t244.5 -48t205.5 -138q92 -92 139.5 -208t47.5 -243q0 -129 -47 -244.5t-140 -205.5q-90 -92 -205.5 -140.5t-244.5 -48.5t-243.5 48.5t-207.5 140.5q-90 90 -138 205.5t-48 244.5zM162 616q0 -96 35.5 -183t103.5 -152 q68 -68 154 -104t182 -36t182 36t154 104q68 66 103.5 152.5t35.5 182.5q0 94 -36 181.5t-103 154.5q-68 66 -154 103t-182 37t-182 -37t-154 -103q-68 -68 -103.5 -154.5t-35.5 -181.5z" />
<glyph unicode="P" horiz-adv-x="874" d="M0 0v1231h334q80 0 152.5 -30t129.5 -87t88 -131t31 -154t-30.5 -153.5t-88.5 -130.5q-55 -57 -128.5 -88t-153.5 -31h-172v-426h-162zM162 590h172q98 0 168 69q71 71 71 167q0 50 -18 94.5t-53 78.5q-70 70 -168 70h-172v-479z" />
<glyph unicode="Q" horiz-adv-x="1445" d="M0 616q0 127 48 243t138 208q92 90 207 138t244 48t244.5 -48t205.5 -138q92 -92 139.5 -208t47.5 -243q0 -129 -47 -244.5t-140 -205.5q-39 -39 -82 -70.5t-92 -54.5q41 -27 84 -59q33 -25 71 -51.5t78 -44t82 -20.5h10q37 0 75 19q16 8 24 15l95 -133q-8 -4 -14.5 -8.5 t-14.5 -8.5q-74 -43 -139 -49q-15 -1 -31 -1q-48 0 -95 14q-61 18 -119 55.5t-118 80.5q-51 39 -114.5 80t-129.5 47l-6 3q-4 -2 -14 -3q-129 0 -243.5 48.5t-207.5 140.5q-90 90 -138 205.5t-48 244.5zM162 616q0 -96 35.5 -183t103.5 -152q68 -68 154 -104t182 -36t182 36 t154 104q68 66 103.5 152.5t35.5 182.5q0 94 -36 181.5t-103 154.5q-68 66 -154 103t-182 37t-182 -37t-154 -103q-68 -68 -103.5 -154.5t-35.5 -181.5z" />
<glyph unicode="R" horiz-adv-x="948" d="M0 0v1231h334q80 0 152.5 -30t129.5 -87t88 -131t31 -154t-30.5 -153.5t-88.5 -130.5q-61 -61 -143 -92l332 -453h-201l-313 426h-129v-426h-162zM162 590h172q98 0 168 69q35 35 53 79t18 91t-18 91.5t-53 78.5q-70 70 -168 70h-172v-479z" />
<glyph unicode="S" horiz-adv-x="884" d="M0 180v2l143 78l2 -4q27 -51 80 -84q55 -31 117 -31q47 0 88 16.5t72 49.5q67 67 67 157q0 56 -19.5 93t-51 63.5t-72.5 45t-82 36.5q-59 27 -113.5 55.5t-95.5 66.5t-64.5 91t-23.5 127q0 61 23.5 118.5t66.5 100.5q92 92 221 92q72 0 134 -30q66 -31 108 -86l-125 -101 q-23 25 -53 41q-16 6 -31.5 10.5t-32.5 4.5q-61 0 -106 -45q-43 -43 -43 -105q0 -43 18.5 -72.5t48 -51t64.5 -37t68 -29.5q68 -31 127 -63t103 -76t68.5 -103t24.5 -143q0 -78 -29.5 -149t-85.5 -126q-53 -55 -124.5 -85t-149.5 -30q-53 0 -103.5 14.5t-95.5 41.5 q-90 55 -143 147z" />
<glyph unicode="T" horiz-adv-x="929" d="M0 1069v162h752v-162h-295v-1069h-162v1069h-295z" />
<glyph unicode="U" horiz-adv-x="1107" d="M0 440v791h162v-791q0 -125 88 -213q86 -86 211 -86t211 86q88 88 88 213v791h162v-791q0 -92 -35 -177t-101 -150q-66 -66 -149.5 -101t-175.5 -35t-176 35t-150 101t-100.5 150.5t-34.5 176.5z" />
<glyph unicode="V" horiz-adv-x="1157" d="M0 1231h172l324 -909l323 909h174l-440 -1231h-115z" />
<glyph unicode="W" horiz-adv-x="1552" d="M0 1231h164l176 -946l354 499l357 -499l176 946h164l-228 -1231h-108l-361 506l-358 -506h-109z" />
<glyph unicode="X" horiz-adv-x="1208" d="M0 0l428 616l-428 615h197l36 -51l293 -422l330 473h197l-92 -131l-336 -484l428 -616h-197l-330 473l-282 -405l-47 -68h-197z" />
<glyph unicode="Y" horiz-adv-x="1230" d="M0 1231h197l34 -47l306 -441l340 488h196l-123 -174l-332 -482v-413v-162h-163v575z" />
<glyph unicode="Z" horiz-adv-x="1103" d="M0 0l655 1069h-610v162h901l-657 -1069h626v-162h-915z" />
<glyph unicode="[" horiz-adv-x="432" d="M0 -238v1706h256v-161h-94v-1381h94v-164h-256z" />
<glyph unicode="\" horiz-adv-x="882" d="M0 1468h172l569 -1706h-170l-47 142l-463 1382z" />
<glyph unicode="]" horiz-adv-x="456" d="M0 -74h94v1381h-94v161h256v-1706h-256v164z" />
<glyph unicode="^" horiz-adv-x="1085" d="M0 492l96 83l318 281l315 -281l96 -83l-114 -115l-297 262l-299 -262z" />
<glyph unicode="_" horiz-adv-x="1306" d="M0 0v162h1122v-162h-1122z" />
<glyph unicode="`" horiz-adv-x="550" d="M2 1231h201l129 -180h-199z" />
<glyph unicode="a" horiz-adv-x="1058" d="M0 422q0 88 33 168t94 141q63 61 143 94t166 33q158 0 277 -96v82h161v-844h-161v82q-121 -98 -277 -98q-86 0 -166 33.5t-143 95.5q-61 61 -94 141t-33 168zM162 422q0 -55 20.5 -105.5t61.5 -89.5q80 -80 192 -80q115 0 195 80q41 39 61.5 89.5t20.5 105.5t-20.5 105.5 t-61.5 88.5q-80 80 -195 80q-113 0 -192 -80q-41 -39 -61.5 -89t-20.5 -105z" />
<glyph unicode="b" horiz-adv-x="1024" d="M0 0v1231h164v-465q121 98 276 98q88 0 168 -33.5t144 -95.5q61 -61 94 -142t33 -169t-33 -168t-94 -143q-63 -61 -143.5 -95t-168.5 -34q-156 0 -276 98v-82h-164zM164 424q0 -115 80 -195q81 -82 196 -82q55 0 105.5 20.5t89.5 61.5q41 39 61.5 89.5t20.5 105.5 q0 115 -82 197q-79 79 -192 79h-3q-113 0 -196 -79q-80 -84 -80 -197z" />
<glyph unicode="c" horiz-adv-x="964" d="M0 422q0 88 33 168t94 141h2q61 61 141 94t166 33q59 0 114.5 -14.5t104.5 -42.5q49 -29 90 -70t70 -90l-139 -82q-37 66 -101 100q-66 37 -139 37q-113 0 -192 -80h-2q-80 -80 -80 -194q0 -55 20.5 -105.5t61.5 -89.5q80 -80 192 -80q74 0 139 37q63 35 101 101l139 -82 q-29 -49 -69.5 -90t-90.5 -70q-100 -59 -219 -59q-86 0 -166 33.5t-143 95.5q-61 61 -94 141t-33 168z" />
<glyph unicode="d" horiz-adv-x="1044" d="M0 424q0 88 33 169t96 142q61 61 142 95t169 34q156 0 277 -98v465h162v-1231h-162v82q-121 -98 -277 -98q-88 0 -169 33.5t-142 95.5q-63 63 -96 143t-33 168zM164 424q0 -115 80 -195q81 -82 196 -82q55 0 105.5 20.5t89.5 61.5q41 39 61.5 89.5t20.5 105.5 q0 115 -82 197q-79 79 -192 79h-3q-113 0 -196 -79q-80 -84 -80 -197z" />
<glyph unicode="e" d="M0 422q0 88 33 168t94 141h2q61 61 141 94t166 33q88 0 168 -32.5t141 -94.5q63 -61 96 -141t33 -168v-82h-700q23 -66 70 -113q80 -80 192 -80q70 0 129 31q57 29 101 88l133 -90q-63 -92 -158 -141q-98 -51 -205 -51q-86 0 -166 33.5t-143 95.5q-61 61 -94 141t-33 168 zM174 504h526q-23 66 -69 112q-80 80 -195 80q-113 0 -192 -80h-2q-45 -47 -68 -112z" />
<glyph unicode="f" horiz-adv-x="532" d="M-63 682v162h83v45q0 70 27 133t76 111q102 102 244 102v-162q-74 0 -129 -55q-53 -53 -54 -129v-45h140v-162h-140v-682h-164v682h-83z" />
<glyph unicode="g" horiz-adv-x="1052" d="M0 422q0 88 33 168t94 141q63 61 143 94t166 33q158 0 277 -96v82h161v-826q0 -86 -32.5 -163.5t-91.5 -137.5q-59 -59 -137 -91t-164 -32q-88 0 -166 33q-41 18 -77 43t-65 56l117 112q35 -39 88 -61q47 -20 103 -21q111 0 186 76q37 39 57.5 86t20.5 100v64 q-121 -98 -277 -98q-86 0 -166 33.5t-141 95.5h-2q-61 61 -94 141t-33 168zM162 422q0 -115 80 -195q84 -80 194 -80q115 0 195 80q39 39 60.5 89.5t21.5 103.5v4q0 53 -21.5 103.5t-60.5 88.5q-80 80 -195 80q-113 0 -192 -80q-41 -39 -61.5 -89t-20.5 -105z" />
<glyph unicode="h" horiz-adv-x="901" d="M0 0v1231h162v-434q45 31 97 46t108 15q72 0 138 -26.5t120 -79.5q53 -51 79.5 -119t26.5 -139v-494h-162v494q0 84 -59 143t-143 59q-86 0 -146 -59q-29 -29 -43 -64.5t-16 -76.5v-496h-162z" />
<glyph unicode="i" horiz-adv-x="362" d="M0 1143q0 41 28.5 69.5t69.5 28.5t71 -28.5t30 -69.5t-30 -70t-71 -29t-69.5 29t-28.5 70zM18 0v844h162v-844h-162z" />
<glyph unicode="j" horiz-adv-x="382" d="M-174 -238q86 0 147 62q61 61 62 147v873h162v-873q0 -74 -28 -141.5t-81 -120.5t-120.5 -80.5t-141.5 -27.5v161zM16 1143q0 41 30 69.5t71 28.5t69.5 -28.5t28.5 -69.5t-28.5 -70t-69.5 -29t-71 29t-30 70z" />
<glyph unicode="k" horiz-adv-x="882" d="M0 0v1231h162v-701l313 314h232l-146 -146l-258 -258l299 -299l141 -141h-229l-352 352v-352h-162z" />
<glyph unicode="l" horiz-adv-x="348" d="M0 0v1231h162v-1231h-162z" />
<glyph unicode="m" horiz-adv-x="1472" d="M0 0v844h162v-47q45 31 97 46t108 15q72 0 138 -26.5t120 -79.5q6 -6 13 -13.5t13 -15.5q6 8 12.5 15t12.5 14q53 53 119.5 79.5t140.5 26.5q72 0 138.5 -26.5t119.5 -79.5q53 -51 79.5 -119t26.5 -139v-494h-161v494q0 84 -60 143q-59 59 -143 59q-86 0 -145 -59 q-29 -29 -44.5 -65.5t-15.5 -77.5v-494h-162v494q0 84 -59 143t-143 59q-86 0 -146 -59q-29 -29 -44 -65.5t-15 -77.5v-494h-162z" />
<glyph unicode="n" horiz-adv-x="899" d="M0 0v844h162v-47q45 31 97 46t108 15q72 0 138 -26.5t120 -79.5q53 -51 79.5 -119t26.5 -139v-494h-162v494q0 84 -59 143t-143 59q-86 0 -146 -59q-29 -29 -44 -65.5t-15 -77.5v-494h-162z" />
<glyph unicode="o" d="M0 422q0 88 33 168t94 141q63 61 143 94t166 33q88 0 168 -32.5t141 -94.5q63 -61 96 -141t33 -168t-33 -168t-96 -141q-61 -61 -141 -95t-168 -34q-86 0 -166 33.5t-141 95.5q-63 61 -96 141t-33 168zM162 422q0 -55 20.5 -105.5t61.5 -89.5q79 -80 192 -80 q115 0 195 80q41 39 61.5 89.5t20.5 105.5t-20.5 105.5t-61.5 88.5q-80 80 -195 80q-113 0 -192 -80q-41 -39 -61.5 -89t-20.5 -105z" />
<glyph unicode="p" d="M0 -389v1233h164v-82q59 47 128.5 71.5t147.5 24.5q88 0 168 -32.5t144 -94.5q61 -63 94 -143t33 -168t-33 -169t-94 -142q-63 -63 -143.5 -96t-168.5 -33q-156 0 -276 98v-467h-164zM164 420q0 -113 80 -197q84 -80 196 -80q115 0 195 80q82 82 82 197q0 55 -20.5 105 t-61.5 89q-39 41 -89.5 61.5t-105.5 20.5q-115 0 -196 -82q-80 -80 -80 -194z" />
<glyph unicode="q" horiz-adv-x="1058" d="M0 420q0 88 33 168t96 143q61 61 142 94t169 33q76 0 146.5 -24.5t130.5 -71.5v82h162v-1233h-162v467q-121 -98 -277 -98q-88 0 -169 32.5t-142 96.5q-63 61 -96 142t-33 169zM164 420q0 -113 80 -197q84 -80 196 -80q115 0 195 80q82 82 82 197q0 55 -20.5 105 t-61.5 89q-39 41 -89.5 61.5t-105.5 20.5q-115 0 -196 -82q-80 -80 -80 -194z" />
<glyph unicode="r" horiz-adv-x="538" d="M0 0v844h162v-47q45 31 97 46t108 15v-162q-86 0 -146 -59q-29 -29 -44 -65.5t-15 -77.5v-494h-162z" />
<glyph unicode="s" horiz-adv-x="677" d="M0 129v2l143 76l2 -4q16 -27 41 -39q23 -16 58 -17q47 0 84 33q32 36 32 79q0 32 -11 51.5t-29.5 33.5t-41 23.5t-45.5 19.5q-43 18 -80.5 38.5t-65.5 48.5t-44 66t-16 91q0 94 67 162q65 65 157 65h3q55 0 98 -20q23 -12 43.5 -27.5t36.5 -36.5l-125 -102q-10 12 -24 18 q-12 6 -29 6q-27 0 -45 -18q-20 -20 -21 -47q0 -20 11.5 -34.5t29 -26t36 -20.5t34.5 -15q49 -20 90 -43t70.5 -53.5t46 -73.5t16.5 -103q0 -113 -80 -196q-41 -39 -91 -60.5t-107 -21.5q-76 0 -142 41q-63 37 -102 104z" />
<glyph unicode="t" horiz-adv-x="569" d="M-66 682v162h84v387h164v-387h140v-162h-140v-352q0 -76 54 -129q53 -53 129 -54v-163q-141 0 -244 102q-102 102 -103 244v352h-84z" />
<glyph unicode="u" horiz-adv-x="913" d="M0 350v494h162v-494q0 -41 15.5 -77.5t43.5 -65.5q59 -59 146 -60q84 0 143 60q59 59 59 143v494h162v-844h-162v47q-92 -63 -202 -63q-152 0 -261 108q-51 51 -78.5 119t-27.5 139z" />
<glyph unicode="v" horiz-adv-x="878" d="M0 844h172l186 -520l185 520h172l-299 -844h-115z" />
<glyph unicode="w" horiz-adv-x="1376" d="M0 844h172l186 -520l185 520h127l184 -520l186 520h172l-301 -844h-114l-191 537l-190 -537h-115z" />
<glyph unicode="x" horiz-adv-x="1040" d="M0 0l340 430l-328 414h207l225 -285l224 285h206l-327 -414l340 -430h-207l-236 299l-237 -299h-207z" />
<glyph unicode="y" horiz-adv-x="907" d="M0 350v494h162v-494q0 -41 15.5 -77.5t43.5 -65.5q59 -59 146 -60q84 0 143 60q59 59 59 143v494h162v-887q0 -72 -26.5 -138.5t-79.5 -119.5q-51 -51 -118 -78t-138 -27q-37 0 -73 6.5t-71 22.5q-66 27 -119 82v2l117 111q2 -2 3 -2t3 -2q12 -14 27.5 -23.5t32.5 -17.5 q35 -16 80 -17q41 0 76.5 15.5t64.5 44.5t44 64.5t15 76.5v90q-92 -63 -202 -63q-152 0 -261 108q-51 51 -78.5 119t-27.5 139z" />
<glyph unicode="z" horiz-adv-x="907" d="M0 0l442 684h-391v162h688l-442 -684h385v-162h-682z" />
<glyph unicode="{" horiz-adv-x="514" d="M0 535v161h45q16 0 29.5 13.5t13.5 31.5v521q0 41 15.5 78.5t43.5 66.5h3q57 61 145 61h43v-161h-43q-18 0 -31.5 -13.5t-13.5 -31.5v-521q0 -72 -41 -125q41 -57 41 -124v-523q0 -43 45 -43h43v-164h-43q-88 0 -145 62h-3q-29 29 -44 66.5t-15 78.5v523q0 16 -13.5 29.5 t-29.5 13.5h-45z" />
<glyph unicode="|" horiz-adv-x="354" d="M0 -238v1706h162v-1706h-162z" />
<glyph unicode="}" horiz-adv-x="526" d="M0 -74h43q45 0 45 43v523q0 67 41 124q-41 53 -41 125v521q0 18 -13.5 31.5t-31.5 13.5h-43v161h43q88 0 145 -61h2q29 -29 44.5 -66.5t15.5 -78.5v-521q0 -18 13 -31.5t30 -13.5h45v-161h-45q-16 0 -29.5 -13.5t-13.5 -29.5v-523q0 -41 -15.5 -78.5t-44.5 -66.5h-2 q-57 -61 -145 -62h-43v164z" />
<glyph unicode="~" horiz-adv-x="1275" d="M0 680q82 63 156.5 84.5t143.5 14.5t133.5 -33.5t127.5 -57.5q47 -23 94 -42t95.5 -25.5t98.5 6t103 53.5l101 -127q-84 -66 -158 -87.5t-142.5 -14t-133 34t-127.5 57.5q-47 23 -94.5 42t-95.5 26t-98 -5t-104 -53z" />
<glyph unicode="&#xa1;" horiz-adv-x="368" d="M0 1245q0 -41 28.5 -70.5t69.5 -29.5t71 29.5t30 70.5t-30 70t-71 29t-69.5 -29t-28.5 -70zM18 -110h162v1105h-162v-1105z" />
<glyph unicode="&#xa2;" horiz-adv-x="964" d="M0 422q0 88 33 168t94 141h2q92 92 213 117v113h162v-107q96 -16 180 -71.5t131 -141.5l-139 -82q-59 100 -172 129v-532q53 14 98 45.5t74 83.5l139 -82q-47 -86 -131 -142.5t-180 -70.5v-107h-162v113q-74 14 -137.5 55t-108.5 97.5t-70.5 127t-25.5 146.5zM162 422 q0 -86 48 -155.5t132 -102.5v516q-29 -10 -53.5 -25.5t-44.5 -38.5h-2q-80 -80 -80 -194z" />
<glyph unicode="&#xa3;" horiz-adv-x="946" d="M0 0v162q39 0 66.5 27.5t27.5 66.5v256h-94v162h94v256q0 66 24.5 123t67.5 100t100.5 68.5t125.5 25.5t126 -25.5t101 -68.5t67.5 -100.5t24.5 -122.5h-162q0 63 -46 109t-111 46q-66 0 -111 -45t-45 -110v-256h233v-162h-233v-256q0 -51 -18 -94h505v-162h-743z" />
<glyph unicode="&#xa4;" horiz-adv-x="970" d="M4 203l88 86q-25 41 -39 87t-14 97t14.5 96t38.5 86l-88 88l115 115l88 -88q41 25 86 39t96 14t97 -14t87 -39l86 88l115 -115l-86 -88q51 -84 51 -182q0 -100 -51 -184l86 -86l-115 -115l-86 86q-84 -51 -184 -51q-98 0 -182 51l-88 -86zM203 473q0 -41 14 -74.5 t40 -59.5t59.5 -40t72.5 -14t74 14t60.5 40t40 60.5t14.5 73.5q0 78 -55.5 132t-133.5 54q-76 0 -131 -53t-55 -133z" />
<glyph unicode="&#xa5;" horiz-adv-x="1230" d="M0 1231h197l34 -47l306 -441l340 488h196l-123 -174l-332 -482v-137h228v-162h-228v-114v-162h-163v276h-228v162h228v137z" />
<glyph unicode="&#xa6;" horiz-adv-x="446" d="M0 -238v611h162v-611h-162zM0 844v624h162v-624h-162z" />
<glyph unicode="&#xa8;" horiz-adv-x="798" d="M0 1141q0 41 28.5 70.5t69.5 29.5t71 -29.5t30 -70.5t-30 -70t-71 -29t-69.5 29t-28.5 70zM414 1141q0 41 28.5 70.5t69.5 29.5t69.5 -29.5t28.5 -70.5t-28.5 -70t-69.5 -29t-69.5 29t-28.5 70z" />
<glyph unicode="&#xab;" horiz-adv-x="989" d="M0 473l115 115l204 205l115 -115l-205 -205l205 -205l-115 -114l-204 204zM344 473l115 115l205 205l116 -115l-207 -205l207 -205l-116 -114l-205 204z" />
<glyph unicode="&#xad;" horiz-adv-x="925" d="M0 391v162h741v-162h-741z" />
<glyph unicode="&#xb0;" horiz-adv-x="653" d="M0 1042q0 43 16.5 81t45 67t66.5 45t81 16t80 -16t65.5 -45t45 -67t16.5 -81t-16.5 -79.5t-44 -65.5t-65.5 -45t-81 -16t-81 16t-66.5 44t-45 65.5t-16.5 80.5zM162 1042q0 -16 12 -30.5t35 -14.5q20 0 32.5 14.5t12.5 30.5q0 21 -14 33q-14 14 -31 15q-18 0 -32.5 -14.5 t-14.5 -33.5z" />
<glyph unicode="&#xb1;" horiz-adv-x="925" d="M0 0v162h741v-162h-741zM0 553v164h291v289h162v-289h288v-164h-288v-289h-162v289h-291z" />
<glyph unicode="&#xb4;" horiz-adv-x="495" d="M2 1051l129 180h201l-131 -180h-199z" />
<glyph unicode="&#xb7;" horiz-adv-x="350" d="M0 487q0 41 28.5 70t69.5 29t71 -29t30 -70t-30 -69.5t-71 -28.5t-69.5 28.5t-28.5 69.5z" />
<glyph unicode="&#xbb;" horiz-adv-x="958" d="M0 268l207 205l-207 205l117 115l205 -205l114 -115l-114 -115l-205 -204zM346 268l205 205l-205 205l115 115l205 -205l114 -115l-114 -115l-205 -204z" />
<glyph unicode="&#xbf;" horiz-adv-x="976" d="M0 291q0 80 25.5 143.5t66.5 115.5t96.5 96t112.5 85q10 6 32 21.5t43.5 34t38.5 36t17 29.5q0 16 -10 25.5t-24 9.5q-12 0 -23.5 -9.5t-11.5 -25.5h-162q0 41 15.5 77t42 63.5t62.5 43t77 15.5t76.5 -16.5t62 -43t42 -62.5t15.5 -77q0 -63 -31.5 -109.5t-80 -84 t-104.5 -72.5t-104 -77t-80 -94t-32 -124q0 -51 20.5 -98t55.5 -82t81 -55.5t99 -20.5q72 0 136.5 40t97.5 107v2l147 -67l-2 -4q-49 -111 -153.5 -176.5t-225.5 -65.5q-86 0 -161.5 34t-133 91t-90.5 133t-33 162zM299 1245q0 41 29 70t70 29t70.5 -29t29.5 -70 t-29.5 -70.5t-70.5 -29.5t-70 29.5t-29 70.5z" />
<glyph unicode="&#xc0;" horiz-adv-x="1212" d="M0 0l29 72l469 1159h69l469 -1159l29 -72h-57h-117l-131 322h-455l-131 -322h-117h-57zM317 1538h201l129 -180h-199zM371 483h323l-162 402z" />
<glyph unicode="&#xc1;" horiz-adv-x="1212" d="M0 0l29 72l469 1159h69l469 -1159l29 -72h-57h-117l-131 322h-455l-131 -322h-117h-57zM371 483h323l-162 402zM399 1358l129 180h201l-131 -180h-199z" />
<glyph unicode="&#xc2;" horiz-adv-x="1212" d="M0 0l29 72l469 1159h69l469 -1159l29 -72h-57h-117l-131 322h-455l-131 -322h-117h-57zM201 1460l336 152l338 -152l-68 -149l-270 122l-270 -122zM371 483h323l-162 402z" />
<glyph unicode="&#xc3;" horiz-adv-x="1212" d="M0 0l29 72l469 1159h69l469 -1159l29 -72h-57h-117l-131 322h-455l-131 -322h-117h-57zM162 1485q59 45 105.5 69.5t92.5 27.5t97 -12.5t119 -48.5q43 -23 72.5 -33t55 -8.5t52.5 15.5t63 45l101 -127q-59 -47 -105.5 -70.5t-92.5 -26.5t-97 12t-119 48 q-45 20 -74.5 31.5t-54.5 9.5t-51.5 -16.5t-63.5 -42.5zM371 483h323l-162 402z" />
<glyph unicode="&#xc4;" horiz-adv-x="1212" d="M0 0l29 72l469 1159h69l469 -1159l29 -72h-57h-117l-131 322h-455l-131 -322h-117h-57zM219 1448q0 41 28.5 70.5t69.5 29.5t71 -29.5t30 -70.5t-30 -70t-71 -29t-69.5 29t-28.5 70zM371 483h323l-162 402zM633 1448q0 41 28.5 70.5t69.5 29.5t69.5 -29.5t28.5 -70.5 t-28.5 -70t-69.5 -29t-69.5 29t-28.5 70z" />
<glyph unicode="&#xc5;" horiz-adv-x="1212" d="M0 0l416 1026q-53 29 -87 84t-34 121q0 49 18.5 92t51 76t75.5 51t92 18t92.5 -18t76 -51t51 -76t18.5 -92q0 -66 -34 -121t-87 -84l416 -1026h-174l-131 322h-455l-131 -322h-174zM371 483h323l-162 402zM459 1231q0 -31 18 -49q10 -10 21.5 -15.5t23.5 -9.5h4h4h5h4h2 h2q25 0 44 23.5t19 50.5q0 35 -22.5 55.5t-51.5 20.5t-51 -20.5t-22 -55.5z" />
<glyph unicode="&#xc6;" horiz-adv-x="1482" d="M0 0l733 1231h189h395v-162h-422v-446h319v-162h-319v-299h422v-162h-584v461h-270l-275 -461h-188zM559 623h174v292z" />
<glyph unicode="&#xc7;" horiz-adv-x="1357" d="M0 614q0 131 51 248t139.5 204t205 137t245.5 50q172 0 321.5 -87t235.5 -236l21 -37l-138 -78l-20 37q-63 113 -178 178.5t-242 65.5q-98 0 -186 -38t-153.5 -104.5t-104.5 -153.5t-39 -186q0 -100 39 -188t104.5 -153.5t153.5 -103.5t186 -38q129 2 242.5 66.5 t177.5 177.5l20 37l138 -78l-21 -37q-57 -102 -146 -175t-204 -114q29 -53 29 -112q0 -47 -18.5 -90.5t-51.5 -75t-75 -51t-91 -19.5h-41v158h41q31 0 54.5 22.5t23.5 55.5t-22.5 55t-55.5 22q-129 0 -245.5 50.5t-205 137.5t-139.5 203.5t-51 249.5z" />
<glyph unicode="&#xc8;" horiz-adv-x="774" d="M0 0v1231h584v-162h-422v-446h319v-164h-319v-297h422v-162h-584zM102 1538h201l129 -180h-199z" />
<glyph unicode="&#xc9;" horiz-adv-x="774" d="M0 0v1231h584v-162h-422v-446h319v-164h-319v-297h422v-162h-584zM160 1358l129 180h201l-131 -180h-199z" />
<glyph unicode="&#xca;" horiz-adv-x="774" d="M-43 1460l336 152l338 -152l-68 -149l-270 122l-270 -122zM0 0v1231h584v-162h-422v-446h319v-164h-319v-297h422v-162h-584z" />
<glyph unicode="&#xcb;" horiz-adv-x="774" d="M0 0v1231h584v-162h-422v-446h319v-164h-319v-297h422v-162h-584zM0 1448q0 41 28.5 70.5t69.5 29.5t71 -29.5t30 -70.5t-30 -70t-71 -29t-69.5 29t-28.5 70zM414 1448q0 41 28.5 70.5t69.5 29.5t69.5 -29.5t28.5 -70.5t-28.5 -70t-69.5 -29t-69.5 29t-28.5 70z" />
<glyph unicode="&#xcc;" horiz-adv-x="430" d="M-64 1538h201l129 -180h-199zM57 0v1231h125h37v-1231h-162z" />
<glyph unicode="&#xcd;" horiz-adv-x="372" d="M-18 1358l129 180h201l-131 -180h-199zM0 0v1231h125h37v-1231h-162z" />
<glyph unicode="&#xce;" horiz-adv-x="559" d="M-49 1460l336 152l338 -152l-68 -149l-270 122l-270 -122zM190 0v1231h125h37v-1231h-162z" />
<glyph unicode="&#xcf;" horiz-adv-x="622" d="M-31 1448q0 41 28.5 70.5t69.5 29.5t71 -29.5t30 -70.5t-30 -70t-71 -29t-69.5 29t-28.5 70zM184 0v1231h125h37v-1231h-162zM383 1448q0 41 28.5 70.5t69.5 29.5t69.5 -29.5t28.5 -70.5t-28.5 -70t-69.5 -29t-69.5 29t-28.5 70z" />
<glyph unicode="&#xd0;" horiz-adv-x="1249" d="M-45 535v161h133v537h363q123 0 235.5 -47t200.5 -135q86 -86 133 -199t47 -236t-47 -235.5t-133 -200.5q-88 -86 -201 -133t-235 -47h-363v535h-133zM250 162h201q92 0 174 33.5t147 99.5q63 66 98 147.5t35 173.5t-34.5 174t-98.5 146q-66 66 -147.5 99.5t-173.5 33.5 h-201v-373h135v-161h-135v-373z" />
<glyph unicode="&#xd1;" horiz-adv-x="1196" d="M0 0v1231h121l721 -916v916h164v-1231h-121l-723 915v-915h-162zM127 1485q59 45 105.5 69.5t92.5 27.5t97 -12.5t119 -48.5q43 -23 72.5 -33t55 -8.5t52.5 15.5t63 45l101 -127q-59 -47 -105.5 -70.5t-92.5 -26.5t-97 12t-119 48q-45 20 -74.5 31.5t-54.5 9.5 t-51.5 -16.5t-63.5 -42.5z" />
<glyph unicode="&#xd2;" horiz-adv-x="1431" d="M0 616q0 127 48 243t138 208q92 90 207 138t244 48t244.5 -48t205.5 -138q92 -92 139.5 -208t47.5 -243q0 -129 -47 -244.5t-140 -205.5q-90 -92 -205.5 -140.5t-244.5 -48.5t-243.5 48.5t-207.5 140.5q-90 90 -138 205.5t-48 244.5zM162 616q0 -96 35.5 -183t103.5 -152 q68 -68 154 -104t182 -36t182 36t154 104q68 66 103.5 152.5t35.5 182.5q0 94 -36 181.5t-103 154.5q-68 66 -154 103t-182 37t-182 -37t-154 -103q-68 -68 -103.5 -154.5t-35.5 -181.5zM430 1538h201l129 -180h-199z" />
<glyph unicode="&#xd3;" horiz-adv-x="1431" d="M0 616q0 127 48 243t138 208q92 90 207 138t244 48t244.5 -48t205.5 -138q92 -92 139.5 -208t47.5 -243q0 -129 -47 -244.5t-140 -205.5q-90 -92 -205.5 -140.5t-244.5 -48.5t-243.5 48.5t-207.5 140.5q-90 90 -138 205.5t-48 244.5zM162 616q0 -96 35.5 -183t103.5 -152 q68 -68 154 -104t182 -36t182 36t154 104q68 66 103.5 152.5t35.5 182.5q0 94 -36 181.5t-103 154.5q-68 66 -154 103t-182 37t-182 -37t-154 -103q-68 -68 -103.5 -154.5t-35.5 -181.5zM491 1358l129 180h201l-131 -180h-199z" />
<glyph unicode="&#xd4;" horiz-adv-x="1431" d="M0 616q0 127 48 243t138 208q92 90 207 138t244 48t244.5 -48t205.5 -138q92 -92 139.5 -208t47.5 -243q0 -129 -47 -244.5t-140 -205.5q-90 -92 -205.5 -140.5t-244.5 -48.5t-243.5 48.5t-207.5 140.5q-90 90 -138 205.5t-48 244.5zM162 616q0 -96 35.5 -183t103.5 -152 q68 -68 154 -104t182 -36t182 36t154 104q68 66 103.5 152.5t35.5 182.5q0 94 -36 181.5t-103 154.5q-68 66 -154 103t-182 37t-182 -37t-154 -103q-68 -68 -103.5 -154.5t-35.5 -181.5zM289 1460l336 152l338 -152l-68 -149l-270 122l-270 -122z" />
<glyph unicode="&#xd5;" horiz-adv-x="1431" d="M0 616q0 127 48 243t138 208q92 90 207 138t244 48t244.5 -48t205.5 -138q92 -92 139.5 -208t47.5 -243q0 -129 -47 -244.5t-140 -205.5q-90 -92 -205.5 -140.5t-244.5 -48.5t-243.5 48.5t-207.5 140.5q-90 90 -138 205.5t-48 244.5zM162 616q0 -96 35.5 -183t103.5 -152 q68 -68 154 -104t182 -36t182 36t154 104q68 66 103.5 152.5t35.5 182.5q0 94 -36 181.5t-103 154.5q-68 66 -154 103t-182 37t-182 -37t-154 -103q-68 -68 -103.5 -154.5t-35.5 -181.5zM250 1485q59 45 105.5 69.5t92.5 27.5t97 -12.5t119 -48.5q43 -23 72.5 -33t55 -8.5 t52.5 15.5t63 45l101 -127q-59 -47 -105.5 -70.5t-92.5 -26.5t-97 12t-119 48q-45 20 -74.5 31.5t-54.5 9.5t-51.5 -16.5t-63.5 -42.5z" />
<glyph unicode="&#xd6;" horiz-adv-x="1431" d="M0 616q0 127 48 243t138 208q92 90 207 138t244 48t244.5 -48t205.5 -138q92 -92 139.5 -208t47.5 -243q0 -129 -47 -244.5t-140 -205.5q-90 -92 -205.5 -140.5t-244.5 -48.5t-243.5 48.5t-207.5 140.5q-90 90 -138 205.5t-48 244.5zM162 616q0 -96 35.5 -183t103.5 -152 q68 -68 154 -104t182 -36t182 36t154 104q68 66 103.5 152.5t35.5 182.5q0 94 -36 181.5t-103 154.5q-68 66 -154 103t-182 37t-182 -37t-154 -103q-68 -68 -103.5 -154.5t-35.5 -181.5zM319 1448q0 41 28.5 70.5t69.5 29.5t71 -29.5t30 -70.5t-30 -70t-71 -29t-69.5 29 t-28.5 70zM733 1448q0 41 28.5 70.5t69.5 29.5t69.5 -29.5t28.5 -70.5t-28.5 -70t-69.5 -29t-69.5 29t-28.5 70z" />
<glyph unicode="&#xd7;" horiz-adv-x="804" d="M0 268l205 205l-205 205l115 115l204 -205l205 205l115 -115l-205 -205l205 -205l-115 -114l-205 204l-204 -204z" />
<glyph unicode="&#xd8;" horiz-adv-x="1431" d="M12 616q0 127 48.5 243t138.5 208q92 90 207.5 138t244.5 48q61 0 123 -12l29 86h170l-45 -137q84 -41 150.5 -102.5t113.5 -136t71.5 -160.5t24.5 -175q0 -133 -51 -248.5t-139 -202.5t-203 -137.5t-244 -50.5q-63 0 -125 13l-28 -84h-170l45 135q-84 39 -150.5 100.5 t-113 136t-72 161.5t-25.5 177zM176 616q0 -131 66.5 -242.5t183.5 -176.5l297 888q-37 6 -72 7q-98 0 -185 -39t-151.5 -103.5t-101.5 -151.5t-37 -182zM580 145q16 -2 34.5 -3t36.5 -1q94 0 180.5 37t152 101.5t103 150.5t37.5 186q0 129 -64.5 239t-182.5 179z" />
<glyph unicode="&#xd9;" horiz-adv-x="1107" d="M0 440v791h162v-791q0 -125 88 -213q86 -86 211 -86t211 86q88 88 88 213v791h162v-791q0 -92 -35 -177t-101 -150q-66 -66 -149.5 -101t-175.5 -35t-176 35t-150 101t-100.5 150.5t-34.5 176.5zM270 1538h201l129 -180h-199z" />
<glyph unicode="&#xda;" horiz-adv-x="1107" d="M0 440v791h162v-791q0 -125 88 -213q86 -86 211 -86t211 86q88 88 88 213v791h162v-791q0 -92 -35 -177t-101 -150q-66 -66 -149.5 -101t-175.5 -35t-176 35t-150 101t-100.5 150.5t-34.5 176.5zM346 1358l129 180h201l-131 -180h-199z" />
<glyph unicode="&#xdb;" horiz-adv-x="1107" d="M0 440v791h162v-791q0 -125 88 -213q86 -86 211 -86t211 86q88 88 88 213v791h162v-791q0 -92 -35 -177t-101 -150q-66 -66 -149.5 -101t-175.5 -35t-176 35t-150 101t-100.5 150.5t-34.5 176.5zM129 1460l336 152l338 -152l-68 -149l-270 122l-270 -122z" />
<glyph unicode="&#xdc;" horiz-adv-x="1107" d="M0 440v791h162v-791q0 -125 88 -213q86 -86 211 -86t211 86q88 88 88 213v791h162v-791q0 -92 -35 -177t-101 -150q-66 -66 -149.5 -101t-175.5 -35t-176 35t-150 101t-100.5 150.5t-34.5 176.5zM154 1448q0 41 28.5 70.5t69.5 29.5t71 -29.5t30 -70.5t-30 -70t-71 -29 t-69.5 29t-28.5 70zM568 1448q0 41 28.5 70.5t69.5 29.5t69.5 -29.5t28.5 -70.5t-28.5 -70t-69.5 -29t-69.5 29t-28.5 70z" />
<glyph unicode="&#xdd;" horiz-adv-x="1230" d="M0 1231h197l34 -47l306 -441l340 488h196l-123 -174l-332 -482v-413v-162h-163v575zM393 1358l129 180h201l-131 -180h-199z" />
<glyph unicode="&#xde;" horiz-adv-x="913" d="M0 0v1231h162v-162v-51h172q82 0 154.5 -32t128 -87t87 -128t31.5 -155t-31.5 -155.5t-87 -129t-128 -87t-154.5 -31.5h-172v-213h-162zM162 375h172q49 0 92 19.5t76 53t52 76.5t19 92t-19 92.5t-52 76t-76 52t-92 19.5h-172v-430v-51z" />
<glyph unicode="&#xdf;" horiz-adv-x="974" d="M0 -266v1173q0 123 82 215l12 15q47 47 105.5 70.5t124.5 23.5h84q66 0 124 -23.5t105 -70.5l12 -13v-2q82 -92 82 -215q0 -68 -25.5 -126t-72.5 -105q37 -25 66.5 -59.5t50 -75.5t31 -86t10.5 -88q0 -72 -26 -137.5t-73 -118.5l-14 -15q-41 -41 -83 -63.5t-89 -33.5 t-100.5 -13t-114.5 -2v166q57 0 116.5 6t107.5 27.5t79 65.5t31 118q0 45 -17.5 83.5t-47.5 68.5t-68.5 47.5t-83.5 17.5h-117v166h117q63 0 110 46t47 111q0 31 -12 59.5t-33.5 50t-50.5 35t-61 13.5h-84q-33 0 -62 -13.5t-50.5 -35t-33.5 -50t-12 -59.5v-1173h-166z" />
<glyph unicode="&#xe0;" horiz-adv-x="1058" d="M0 422q0 88 33 168t94 141q63 61 143 94t166 33q158 0 277 -96v82h161v-844h-161v82q-121 -98 -277 -98q-86 0 -166 33.5t-143 95.5q-61 61 -94 141t-33 168zM162 422q0 -55 20.5 -105.5t61.5 -89.5q80 -80 192 -80q115 0 195 80q41 39 61.5 89.5t20.5 105.5t-20.5 105.5 t-61.5 88.5q-80 80 -195 80q-113 0 -192 -80q-41 -39 -61.5 -89t-20.5 -105zM233 1231h201l129 -180h-199z" />
<glyph unicode="&#xe1;" horiz-adv-x="1058" d="M0 422q0 88 33 168t94 141q63 61 143 94t166 33q158 0 277 -96v82h161v-844h-161v82q-121 -98 -277 -98q-86 0 -166 33.5t-143 95.5q-61 61 -94 141t-33 168zM162 422q0 -55 20.5 -105.5t61.5 -89.5q80 -80 192 -80q115 0 195 80q41 39 61.5 89.5t20.5 105.5t-20.5 105.5 t-61.5 88.5q-80 80 -195 80q-113 0 -192 -80q-41 -39 -61.5 -89t-20.5 -105zM311 1051l129 180h201l-131 -180h-199z" />
<glyph unicode="&#xe2;" horiz-adv-x="1058" d="M0 422q0 88 33 168t94 141q63 61 143 94t166 33q158 0 277 -96v82h161v-844h-161v82q-121 -98 -277 -98q-86 0 -166 33.5t-143 95.5q-61 61 -94 141t-33 168zM100 1153l336 152l338 -152l-68 -149l-270 122l-270 -122zM162 422q0 -55 20.5 -105.5t61.5 -89.5 q80 -80 192 -80q115 0 195 80q41 39 61.5 89.5t20.5 105.5t-20.5 105.5t-61.5 88.5q-80 80 -195 80q-113 0 -192 -80q-41 -39 -61.5 -89t-20.5 -105z" />
<glyph unicode="&#xe3;" horiz-adv-x="1058" d="M0 422q0 88 33 168t94 141q63 61 143 94t166 33q158 0 277 -96v82h161v-844h-161v82q-121 -98 -277 -98q-86 0 -166 33.5t-143 95.5q-61 61 -94 141t-33 168zM80 1178q59 45 105.5 69.5t92.5 27.5t97 -12.5t119 -48.5q43 -23 72.5 -33t55 -8.5t52.5 15.5t63 45l101 -127 q-59 -47 -105.5 -70.5t-92.5 -26.5t-97 12t-119 48q-45 20 -74.5 31.5t-54.5 9.5t-51.5 -16.5t-63.5 -42.5zM162 422q0 -55 20.5 -105.5t61.5 -89.5q80 -80 192 -80q115 0 195 80q41 39 61.5 89.5t20.5 105.5t-20.5 105.5t-61.5 88.5q-80 80 -195 80q-113 0 -192 -80 q-41 -39 -61.5 -89t-20.5 -105z" />
<glyph unicode="&#xe4;" horiz-adv-x="1058" d="M0 422q0 88 33 168t94 141q63 61 143 94t166 33q158 0 277 -96v82h161v-844h-161v82q-121 -98 -277 -98q-86 0 -166 33.5t-143 95.5q-61 61 -94 141t-33 168zM129 1141q0 41 28.5 70.5t69.5 29.5t71 -29.5t30 -70.5t-30 -70t-71 -29t-69.5 29t-28.5 70zM162 422 q0 -55 20.5 -105.5t61.5 -89.5q80 -80 192 -80q115 0 195 80q41 39 61.5 89.5t20.5 105.5t-20.5 105.5t-61.5 88.5q-80 80 -195 80q-113 0 -192 -80q-41 -39 -61.5 -89t-20.5 -105zM543 1141q0 41 28.5 70.5t69.5 29.5t69.5 -29.5t28.5 -70.5t-28.5 -70t-69.5 -29t-69.5 29 t-28.5 70z" />
<glyph unicode="&#xe5;" horiz-adv-x="1058" d="M0 422q0 88 35 168t94 139t139 94t170 35q156 0 275 -96v82h161v-844h-161v82q-121 -98 -275 -98q-90 0 -170 34.5t-139 95t-94 139.5t-35 169zM162 422q0 -55 20.5 -105.5t61.5 -89.5q80 -80 194 -80q55 0 105.5 21.5t88.5 59.5t59.5 88.5t21.5 105.5t-21.5 105.5 t-59.5 88t-88 59t-106 21.5q-57 0 -107 -21.5t-88 -59t-59.5 -88t-21.5 -105.5zM221 1155q0 49 18.5 91t51.5 75t76 51.5t92 18.5q47 0 90 -18.5t74.5 -51.5t51 -75t19.5 -91t-18.5 -92t-51 -76t-74.5 -51t-91 -18t-92 18t-76 51t-51.5 76t-18.5 92zM383 1155 q0 -31 21.5 -53.5t54.5 -22.5q31 0 52 22.5t21 53.5q1 33 -22 51q-18 23 -51 23t-54.5 -22.5t-21.5 -51.5z" />
<glyph unicode="&#xe6;" horiz-adv-x="1761" d="M0 422q0 92 35 171t95 138.5t139 93t167 33.5q158 0 277 -96v82h161v-82q119 96 275 96q90 0 170 -35t139.5 -94t94 -138t34.5 -169v-82h-700q27 -88 101.5 -140.5t160.5 -52.5q68 0 128 31t99 88l135 -90q-61 -90 -157.5 -141t-204.5 -51q-154 0 -275 98v-82h-161v82 q-121 -98 -277 -98q-88 0 -167 34.5t-139 94t-95 139.5t-35 170zM162 422q0 -55 20.5 -105.5t61.5 -89.5q80 -80 192 -80q57 0 107.5 21.5t88.5 59.5t59.5 88.5t21.5 105.5t-21.5 105.5t-59.5 88t-88 59t-108 21.5q-55 0 -105 -21.5t-88 -59t-59.5 -88t-21.5 -105.5z M887 504h526q-29 86 -100.5 139t-163.5 53q-86 0 -161 -53t-101 -139z" />
<glyph unicode="&#xe7;" horiz-adv-x="964" d="M0 420q0 90 34 170t93 139t139 94t172 35q121 0 222.5 -60.5t160.5 -160.5l-141 -80q-37 63 -100.5 101t-141.5 38q-59 0 -109 -22.5t-87 -60.5t-58.5 -88t-21.5 -105q0 -57 21.5 -107.5t60.5 -87.5v-2q37 -37 87 -58.5t107 -21.5q80 0 142.5 39t99.5 101l141 -80 q-66 -115 -184 -174q14 -25 22.5 -53.5t8.5 -59.5q0 -47 -18.5 -89t-49.5 -72.5t-73 -49t-89 -18.5v161q27 0 47.5 19.5t20.5 48.5q-1 29 -21 45q-20 20 -47 21q-90 0 -170 34.5t-139 94t-94 139.5t-35 170z" />
<glyph unicode="&#xe8;" d="M0 422q0 88 33 168t94 141h2q61 61 141 94t166 33q88 0 168 -32.5t141 -94.5q63 -61 96 -141t33 -168v-82h-700q23 -66 70 -113q80 -80 192 -80q70 0 129 31q57 29 101 88l133 -90q-63 -92 -158 -141q-98 -51 -205 -51q-86 0 -166 33.5t-143 95.5q-61 61 -94 141t-33 168 zM174 504h526q-23 66 -69 112q-80 80 -195 80q-113 0 -192 -80h-2q-45 -47 -68 -112zM225 1231h201l129 -180h-199z" />
<glyph unicode="&#xe9;" d="M0 422q0 88 33 168t94 141h2q61 61 141 94t166 33q88 0 168 -32.5t141 -94.5q63 -61 96 -141t33 -168v-82h-700q23 -66 70 -113q80 -80 192 -80q70 0 129 31q57 29 101 88l133 -90q-63 -92 -158 -141q-98 -51 -205 -51q-86 0 -166 33.5t-143 95.5q-61 61 -94 141t-33 168 zM174 504h526q-23 66 -69 112q-80 80 -195 80q-113 0 -192 -80h-2q-45 -47 -68 -112zM291 1051l129 180h201l-131 -180h-199z" />
<glyph unicode="&#xea;" d="M0 422q0 88 33 168t94 141h2q61 61 141 94t166 33q88 0 168 -32.5t141 -94.5q63 -61 96 -141t33 -168v-82h-700q23 -66 70 -113q80 -80 192 -80q70 0 129 31q57 29 101 88l133 -90q-63 -92 -158 -141q-98 -51 -205 -51q-86 0 -166 33.5t-143 95.5q-61 61 -94 141t-33 168 zM86 1153l336 152l338 -152l-68 -149l-270 122l-270 -122zM174 504h526q-23 66 -69 112q-80 80 -195 80q-113 0 -192 -80h-2q-45 -47 -68 -112z" />
<glyph unicode="&#xeb;" d="M0 422q0 88 33 168t94 141h2q61 61 141 94t166 33q88 0 168 -32.5t141 -94.5q63 -61 96 -141t33 -168v-82h-700q23 -66 70 -113q80 -80 192 -80q70 0 129 31q57 29 101 88l133 -90q-63 -92 -158 -141q-98 -51 -205 -51q-86 0 -166 33.5t-143 95.5q-61 61 -94 141t-33 168 zM127 1141q0 41 28.5 70.5t69.5 29.5t71 -29.5t30 -70.5t-30 -70t-71 -29t-69.5 29t-28.5 70zM174 504h526q-23 66 -69 112q-80 80 -195 80q-113 0 -192 -80h-2q-45 -47 -68 -112zM541 1141q0 41 28.5 70.5t69.5 29.5t69.5 -29.5t28.5 -70.5t-28.5 -70t-69.5 -29t-69.5 29 t-28.5 70z" />
<glyph unicode="&#xec;" horiz-adv-x="362" d="M-129 1231h201l129 -180h-199zM18 0v844h162v-844h-162z" />
<glyph unicode="&#xed;" horiz-adv-x="362" d="M8 1051l129 180h201l-131 -180h-199zM18 0v844h162v-844h-162z" />
<glyph unicode="&#xee;" horiz-adv-x="710" d="M-37 1153l336 152l338 -152l-68 -149l-270 122l-270 -122zM215 0v844h162v-844h-162z" />
<glyph unicode="&#xef;" horiz-adv-x="761" d="M-33 1141q0 41 29 70.5t70 29.5t70.5 -29.5t29.5 -70.5t-30 -70t-70 -29q-41 0 -70 29t-29 70zM190 0v844h162v-844h-162zM381 1141q0 41 28.5 70.5t69.5 29.5t70 -29.5t29 -70.5t-29 -70t-70 -29t-69.5 29t-28.5 70z" />
<glyph unicode="&#xf0;" horiz-adv-x="1122" d="M0 424q0 90 35 170t95 140.5t140 95t170 34.5q156 0 277 -98v154l-123 -50v177l123 49v137h164v-72l120 51v-176l-120 -49v-987h-164v82q-121 -98 -277 -98q-90 0 -171 35.5t-140 95t-94 139.5t-35 170zM164 424q0 -59 22.5 -109.5t60.5 -87.5t88 -58.5t105 -21.5 t105.5 23t88.5 60.5t60.5 88t22.5 105.5t-21.5 105.5t-59.5 88t-88 60t-108 22.5q-57 0 -107 -21.5t-88 -59t-59.5 -88t-21.5 -107.5z" />
<glyph unicode="&#xf1;" horiz-adv-x="899" d="M-10 1178q59 45 105.5 69.5t92.5 27.5t97 -12.5t119 -48.5q43 -23 72.5 -33t55 -8.5t52.5 15.5t63 45l101 -127q-59 -47 -105.5 -70.5t-92.5 -26.5t-97 12t-119 48q-45 20 -74.5 31.5t-54.5 9.5t-51.5 -16.5t-63.5 -42.5zM0 0v844h162v-47q45 31 97 46t108 15 q72 0 138 -26.5t120 -79.5q53 -51 79.5 -119t26.5 -139v-494h-162v494q0 84 -59 143t-143 59q-86 0 -146 -59q-29 -29 -44 -65.5t-15 -77.5v-494h-162z" />
<glyph unicode="&#xf2;" d="M0 422q0 88 33 168t94 141q63 61 143 94t166 33q88 0 168 -32.5t141 -94.5q63 -61 96 -141t33 -168t-33 -168t-96 -141q-61 -61 -141 -95t-168 -34q-86 0 -166 33.5t-141 95.5q-63 61 -96 141t-33 168zM162 422q0 -55 20.5 -105.5t61.5 -89.5q79 -80 192 -80 q115 0 195 80q41 39 61.5 89.5t20.5 105.5t-20.5 105.5t-61.5 88.5q-80 80 -195 80q-113 0 -192 -80q-41 -39 -61.5 -89t-20.5 -105zM223 1231h201l129 -180h-199z" />
<glyph unicode="&#xf3;" d="M0 422q0 88 33 168t94 141q63 61 143 94t166 33q88 0 168 -32.5t141 -94.5q63 -61 96 -141t33 -168t-33 -168t-96 -141q-61 -61 -141 -95t-168 -34q-86 0 -166 33.5t-141 95.5q-63 61 -96 141t-33 168zM162 422q0 -55 20.5 -105.5t61.5 -89.5q79 -80 192 -80 q115 0 195 80q41 39 61.5 89.5t20.5 105.5t-20.5 105.5t-61.5 88.5q-80 80 -195 80q-113 0 -192 -80q-41 -39 -61.5 -89t-20.5 -105zM289 1051l129 180h201l-131 -180h-199z" />
<glyph unicode="&#xf4;" d="M0 422q0 88 33 168t94 141q63 61 143 94t166 33q88 0 168 -32.5t141 -94.5q63 -61 96 -141t33 -168t-33 -168t-96 -141q-61 -61 -141 -95t-168 -34q-86 0 -166 33.5t-141 95.5q-63 61 -96 141t-33 168zM90 1153l336 152l338 -152l-68 -149l-270 122l-270 -122zM162 422 q0 -55 20.5 -105.5t61.5 -89.5q79 -80 192 -80q115 0 195 80q41 39 61.5 89.5t20.5 105.5t-20.5 105.5t-61.5 88.5q-80 80 -195 80q-113 0 -192 -80q-41 -39 -61.5 -89t-20.5 -105z" />
<glyph unicode="&#xf5;" d="M0 422q0 88 33 168t94 141q63 61 143 94t166 33q88 0 168 -32.5t141 -94.5q63 -61 96 -141t33 -168t-33 -168t-96 -141q-61 -61 -141 -95t-168 -34q-86 0 -166 33.5t-141 95.5q-63 61 -96 141t-33 168zM55 1178q59 45 105.5 69.5t92.5 27.5t97 -12.5t119 -48.5 q43 -23 72.5 -33t55 -8.5t52.5 15.5t63 45l101 -127q-59 -47 -105.5 -70.5t-92.5 -26.5t-97 12t-119 48q-45 20 -74.5 31.5t-54.5 9.5t-51.5 -16.5t-63.5 -42.5zM162 422q0 -55 20.5 -105.5t61.5 -89.5q79 -80 192 -80q115 0 195 80q41 39 61.5 89.5t20.5 105.5t-20.5 105.5 t-61.5 88.5q-80 80 -195 80q-113 0 -192 -80q-41 -39 -61.5 -89t-20.5 -105z" />
<glyph unicode="&#xf6;" d="M0 422q0 88 33 168t94 141q63 61 143 94t166 33q88 0 168 -32.5t141 -94.5q63 -61 96 -141t33 -168t-33 -168t-96 -141q-61 -61 -141 -95t-168 -34q-86 0 -166 33.5t-141 95.5q-63 61 -96 141t-33 168zM117 1141q0 41 28.5 70.5t69.5 29.5t71 -29.5t30 -70.5t-30 -70 t-71 -29t-69.5 29t-28.5 70zM162 422q0 -55 20.5 -105.5t61.5 -89.5q79 -80 192 -80q115 0 195 80q41 39 61.5 89.5t20.5 105.5t-20.5 105.5t-61.5 88.5q-80 80 -195 80q-113 0 -192 -80q-41 -39 -61.5 -89t-20.5 -105zM531 1141q0 41 28.5 70.5t69.5 29.5t69.5 -29.5 t28.5 -70.5t-28.5 -70t-69.5 -29t-69.5 29t-28.5 70z" />
<glyph unicode="&#xf7;" horiz-adv-x="937" d="M-2 338v164h741v-164h-741zM268 139q0 41 30 70t71 29t69.5 -29t28.5 -70t-28.5 -69.5t-69.5 -28.5t-71 28.5t-30 69.5zM268 700q0 41 30 70t71 29t69.5 -29t28.5 -70t-28.5 -69.5t-69.5 -28.5t-71 28.5t-30 69.5z" />
<glyph unicode="&#xf8;" d="M10 422q0 92 35 171t95.5 138.5t139 93t166.5 33.5h31t29 -4l29 84h172l-45 -135q51 -29 93 -70t70.5 -91t44 -106.5t15.5 -113.5q0 -88 -33 -168t-96 -141q-61 -61 -141 -95t-169 -34q-14 0 -28.5 1t-30.5 3l-27 -82h-172l45 135q-53 27 -94 69t-69.5 92t-44 106.5 t-15.5 113.5zM172 422q0 -66 29.5 -126t85.5 -97l168 497q-57 0 -108.5 -21.5t-90.5 -58t-61.5 -87t-22.5 -107.5zM440 147q57 0 108.5 20.5t90.5 57.5t61.5 87t22.5 110q0 66 -30.5 126t-84.5 97z" />
<glyph unicode="&#xf9;" horiz-adv-x="913" d="M0 350v494h162v-494q0 -41 15.5 -77.5t43.5 -65.5q59 -59 146 -60q84 0 143 60q59 59 59 143v494h162v-844h-162v47q-92 -63 -202 -63q-152 0 -261 108q-51 51 -78.5 119t-27.5 139zM164 1231h201l129 -180h-199z" />
<glyph unicode="&#xfa;" horiz-adv-x="913" d="M0 350v494h162v-494q0 -41 15.5 -77.5t43.5 -65.5q59 -59 146 -60q84 0 143 60q59 59 59 143v494h162v-844h-162v47q-92 -63 -202 -63q-152 0 -261 108q-51 51 -78.5 119t-27.5 139zM244 1051l129 180h201l-131 -180h-199z" />
<glyph unicode="&#xfb;" horiz-adv-x="913" d="M0 350v494h162v-494q0 -41 15.5 -77.5t43.5 -65.5q59 -59 146 -60q84 0 143 60q59 59 59 143v494h162v-844h-162v47q-92 -63 -202 -63q-152 0 -261 108q-51 51 -78.5 119t-27.5 139zM20 1153l336 152l338 -152l-68 -149l-270 122l-270 -122z" />
<glyph unicode="&#xfc;" horiz-adv-x="913" d="M0 350v494h162v-494q0 -41 15.5 -77.5t43.5 -65.5q59 -59 146 -60q84 0 143 60q59 59 59 143v494h162v-844h-162v47q-92 -63 -202 -63q-152 0 -261 108q-51 51 -78.5 119t-27.5 139zM63 1141q0 41 28.5 70.5t69.5 29.5t71 -29.5t30 -70.5t-30 -70t-71 -29t-69.5 29 t-28.5 70zM477 1141q0 41 28.5 70.5t69.5 29.5t69.5 -29.5t28.5 -70.5t-28.5 -70t-69.5 -29t-69.5 29t-28.5 70z" />
<glyph unicode="&#xfd;" horiz-adv-x="907" d="M0 350v494h162v-494q0 -41 15.5 -77.5t43.5 -65.5q59 -59 146 -60q84 0 143 60q59 59 59 143v494h162v-887q0 -72 -26.5 -138.5t-79.5 -119.5q-51 -51 -118 -78t-138 -27q-37 0 -73 6.5t-71 22.5q-66 27 -119 82v2l117 111q2 -2 3 -2t3 -2q12 -14 27.5 -23.5t32.5 -17.5 q35 -16 80 -17q41 0 76.5 15.5t64.5 44.5t44 64.5t15 76.5v90q-92 -63 -202 -63q-152 0 -261 108q-51 51 -78.5 119t-27.5 139zM250 1051l129 180h201l-131 -180h-199z" />
<glyph unicode="&#xfe;" horiz-adv-x="1071" d="M8 -389v1620h164v-465q121 98 277 98q88 0 167.5 -34.5t140 -94t95.5 -139.5t35 -172q0 -90 -35 -170t-94.5 -140.5t-139 -95t-169.5 -34.5q-156 0 -277 98v-471h-164zM172 424q0 -59 22.5 -109.5t60.5 -87.5t88.5 -58.5t105.5 -21.5t105 23t88 60.5t60.5 88t22.5 105.5 t-21.5 105.5t-59.5 88t-88 60t-107 22.5t-107.5 -21.5t-88.5 -59t-59.5 -88t-21.5 -107.5z" />
<glyph unicode="&#xff;" horiz-adv-x="907" d="M0 350v494h162v-494q0 -41 15.5 -77.5t43.5 -65.5q59 -59 146 -60q84 0 143 60q59 59 59 143v494h162v-887q0 -72 -26.5 -138.5t-79.5 -119.5q-51 -51 -118 -78t-138 -27q-37 0 -73 6.5t-71 22.5q-66 27 -119 82v2l117 111q2 -2 3 -2t3 -2q12 -14 27.5 -23.5t32.5 -17.5 q35 -16 80 -17q41 0 76.5 15.5t64.5 44.5t44 64.5t15 76.5v90q-92 -63 -202 -63q-152 0 -261 108q-51 51 -78.5 119t-27.5 139zM61 1141q0 41 28.5 70.5t69.5 29.5t71 -29.5t30 -70.5t-30 -70t-71 -29t-69.5 29t-28.5 70zM475 1141q0 41 28.5 70.5t69.5 29.5t69.5 -29.5 t28.5 -70.5t-28.5 -70t-69.5 -29t-69.5 29t-28.5 70z" />
<glyph unicode="&#x152;" horiz-adv-x="1896" d="M0 616q0 131 50 247t137 203t203 137t247 50q143 0 259 -56t216 -157v191h584v-162h-422v-446h319v-162h-319v-299h422v-162h-584v190q-100 -100 -217 -155t-258 -55q-129 0 -245 50t-203 136t-138 201.5t-51 248.5zM162 616q0 -98 38 -185t102.5 -151.5t151.5 -101.5 t183 -37t183 37t151.5 101.5t102.5 151.5t38 185q0 96 -38 182.5t-102.5 152t-150.5 103.5t-184 38t-185 -38t-151.5 -103.5t-101.5 -151.5t-37 -183z" />
<glyph unicode="&#x153;" horiz-adv-x="1820" d="M0 422q0 92 35 171t95 138.5t139 93t167 33.5q104 0 200.5 -48t156.5 -134q68 88 156.5 135t199.5 47q90 0 170 -35t139.5 -94t94 -138t34.5 -169v-82h-700q27 -88 101.5 -140.5t160.5 -52.5q68 0 128 31t99 88l135 -90q-61 -90 -157.5 -141t-204.5 -51q-104 0 -200.5 49 t-155.5 135q-17 -28 -48 -55q-61 -61 -141 -95t-168 -34q-90 0 -169 34.5t-138 95t-94 139.5t-35 169zM162 422q0 -55 21.5 -105.5t59.5 -88.5t88 -59.5t105 -21.5q57 0 107.5 21.5t88.5 59.5t59.5 88.5t21.5 105.5t-21.5 105.5t-59.5 88t-88 59t-108 21.5q-55 0 -105 -21.5 t-88 -59t-59.5 -88t-21.5 -105.5zM887 504h526q-29 86 -100.5 139t-163.5 53q-86 0 -161 -53t-101 -139z" />
<glyph unicode="&#x178;" horiz-adv-x="1230" d="M0 1231h197l34 -47l306 -441l340 488h196l-123 -174l-332 -482v-413v-162h-163v575zM231 1448q0 41 28.5 70.5t69.5 29.5t71 -29.5t30 -70.5t-30 -70t-71 -29t-69.5 29t-28.5 70zM645 1448q0 41 28.5 70.5t69.5 29.5t69.5 -29.5t28.5 -70.5t-28.5 -70t-69.5 -29t-69.5 29 t-28.5 70z" />
<glyph unicode="&#x2c6;" horiz-adv-x="874" d="M0 1153l336 152l338 -152l-68 -149l-270 122l-270 -122z" />
<glyph unicode="&#x2dc;" horiz-adv-x="976" d="M0 1178q59 45 105.5 69.5t92.5 27.5t97 -12.5t119 -48.5q43 -23 72.5 -33t55 -8.5t52.5 15.5t63 45l101 -127q-59 -47 -105.5 -70.5t-92.5 -26.5t-97 12t-119 48q-45 20 -74.5 31.5t-54.5 9.5t-51.5 -16.5t-63.5 -42.5z" />
<glyph unicode="&#x2000;" horiz-adv-x="806" />
<glyph unicode="&#x2001;" horiz-adv-x="1612" />
<glyph unicode="&#x2002;" horiz-adv-x="806" />
<glyph unicode="&#x2003;" horiz-adv-x="1612" />
<glyph unicode="&#x2004;" horiz-adv-x="537" />
<glyph unicode="&#x2005;" horiz-adv-x="403" />
<glyph unicode="&#x2006;" horiz-adv-x="268" />
<glyph unicode="&#x2007;" horiz-adv-x="268" />
<glyph unicode="&#x2008;" horiz-adv-x="201" />
<glyph unicode="&#x2009;" horiz-adv-x="322" />
<glyph unicode="&#x200a;" horiz-adv-x="89" />
<glyph unicode="&#x2010;" horiz-adv-x="925" d="M0 391v162h741v-162h-741z" />
<glyph unicode="&#x2011;" horiz-adv-x="925" d="M0 391v162h741v-162h-741z" />
<glyph unicode="&#x2012;" horiz-adv-x="925" d="M0 391v162h741v-162h-741z" />
<glyph unicode="&#x2013;" horiz-adv-x="983" d="M0 391v162h741v-162h-741z" />
<glyph unicode="&#x2014;" horiz-adv-x="1179" d="M0 391v162h926v-162h-926z" />
<glyph unicode="&#x2018;" horiz-adv-x="405" d="M0 1040v58q0 59 42 100t101 41v-109q25 -12 40.5 -36.5t15.5 -53.5q0 -41 -29 -69.5t-70 -28.5t-70.5 28.5t-29.5 69.5z" />
<glyph unicode="&#x2019;" horiz-adv-x="399" d="M0 1141q0 41 28.5 69.5t69.5 28.5t71 -28.5t30 -69.5v-58q0 -59 -42 -100t-102 -41v109q-25 12 -40 36.5t-15 53.5z" />
<glyph unicode="&#x201a;" horiz-adv-x="387" d="M0 -57v264h166v-264h-166z" />
<glyph unicode="&#x201c;" horiz-adv-x="665" d="M0 1040v58q0 59 42 100t101 41v-109q25 -12 40.5 -36.5t15.5 -53.5q0 -41 -29 -69.5t-70 -28.5t-70.5 28.5t-29.5 69.5zM266 1040v58q0 59 42 100t102 41v-109q25 -12 40 -36.5t15 -53.5q0 -41 -28.5 -69.5t-69.5 -28.5t-71 28.5t-30 69.5z" />
<glyph unicode="&#x201d;" horiz-adv-x="671" d="M0 1141q0 41 28.5 69.5t69.5 28.5t71 -28.5t30 -69.5v-58q0 -59 -42 -100t-102 -41v109q-25 12 -40 36.5t-15 53.5zM266 1141q0 41 29 69.5t70 28.5t70.5 -28.5t29.5 -69.5v-58q0 -59 -42 -100t-101 -41v109q-25 12 -40.5 36.5t-15.5 53.5z" />
<glyph unicode="&#x201e;" horiz-adv-x="602" d="M0 -57v264h166v-264h-166zM231 -57v264h166v-264h-166z" />
<glyph unicode="&#x2022;" horiz-adv-x="641" d="M0 541q0 82 56.5 138t138.5 56q39 0 74.5 -15t62 -41t42 -61.5t15.5 -76.5t-15.5 -76t-42 -61.5t-62.5 -42t-74 -15.5q-41 0 -77 15.5t-61.5 42t-41 61.5t-15.5 76z" />
<glyph unicode="&#x2026;" horiz-adv-x="1351" d="M0 78q0 41 28.5 69.5t69.5 28.5t71 -28.5t30 -69.5t-30 -69.5t-71 -28.5t-69.5 28.5t-28.5 69.5zM451 78q0 41 28.5 69.5t69.5 28.5t70.5 -28.5t29.5 -69.5t-29.5 -69.5t-70.5 -28.5t-69.5 28.5t-28.5 69.5zM901 78q0 41 28.5 69.5t69.5 28.5t71 -28.5t30 -69.5 t-30 -69.5t-71 -28.5t-69.5 28.5t-28.5 69.5z" />
<glyph unicode="&#x202f;" horiz-adv-x="322" />
<glyph unicode="&#x2039;" horiz-adv-x="647" d="M0 473l115 115l204 205l115 -115l-205 -205l205 -205l-115 -114l-204 204z" />
<glyph unicode="&#x203a;" horiz-adv-x="628" d="M0 268l205 205l-205 205l115 115l204 -205l115 -115l-115 -115l-204 -204z" />
<glyph unicode="&#x205f;" horiz-adv-x="403" />
<glyph unicode="&#x20ac;" horiz-adv-x="1230" d="M0 412v161h125q0 10 -1 21.5t-1 21.5t1 20.5t1 20.5h-125v162h158q33 100 93 180t141 136.5t175.5 87t194.5 30.5q72 -2 145.5 -17t141.5 -50l38 -21l-73 -145l-39 20q-47 25 -103.5 38.5t-109.5 13.5q-68 0 -133.5 -19.5t-121.5 -55.5t-101.5 -86t-73.5 -112h409v-162 h-454v-84h454v-161h-409q29 -61 74 -111.5t102 -86.5t121.5 -54.5t132.5 -18.5q57 -4 110.5 12.5t102.5 39.5l39 18l73 -143l-38 -21q-68 -35 -141.5 -51t-145.5 -16q-98 0 -193.5 29.5t-175.5 86t-141.5 136t-93.5 180.5h-158z" />
<glyph unicode="&#x25fc;" horiz-adv-x="839" d="M0 0v840h840v-840h-840z" />
</font>
</defs>
</svg>
