<svg id="Layer_1" xmlns="http://www.w3.org/2000/svg" viewBox="0 0 578.6 682.1"><style>.st0{fill:#CC8B5F;} .st1{fill:#FFFFFF;}</style><path class="st0" d="M543.8 431.9c-33.6 101.9-126.3 178.1-238.3 186-13.8 1-29.4.9-43.6-.4-67-6-129.1-36.8-175-86.6-26.5-28.8-46.1-62.5-58-98.9h-3.8c12 37.3 32 71.9 59.2 101.4 46.4 50.5 109.4 81.7 177.3 87.8 8 .8 16.4 1.1 24.8 1.1 6.7 0 13.2-.3 19.4-.7 113.9-8 208.1-85.8 241.8-189.6h-3.8zM286.4 76.7c119.4 0 221.1 77.7 257.1 185.2h3.8C511.1 152.4 407.8 73.1 286.4 73.1S61.7 152.4 25.6 261.9h3.8C65.3 154.4 167 76.7 286.4 76.7z"/><path class="st0" d="M512.5 431.9C480.2 517.5 400.6 581 305 588.3l.4 6.3-1.1-6.2c-13.8 1-27.1.9-41.1-.4l-.8-.1c-94.5-9.4-171.2-71.6-202.4-156H46.6c31.7 90.9 113.5 158.5 214.6 168.5l1 .1c8.1.7 16.2 1.1 24.1 1.1 6.2 0 12.5-.2 19.1-.7l.6-.1c102.1-7.8 186.9-76.7 219.7-168.9h-13.2zM286.4 106.3c102.9 0 191 64.7 225.6 155.6h13.4c-35.2-98-129.1-168.2-239.1-168.2-109.9 0-203.8 70.2-239 168.2h13.4C95.4 171 183.5 106.3 286.4 106.3zM490.6 371.4l.2-.1c.5-.3.9-.6 1.3-.9.4-.3.8-.7 1.2-1.1 1.2-1.2 2.2-2.7 2.9-4.3.7-1.6 1-3.3 1-5v-32.7h4.5V360c0 2.4-.4 4.6-1.3 6.8-.9 2.1-2.2 4-3.9 5.7-1.1 1.1-2.2 2-3.5 2.7l-.1.1-2.3-3.9zM509.2 356.6c.8 0 1.4.3 2 .8.5.5.8 1.2.8 1.9 0 .8-.3 1.4-.8 1.9s-1.2.8-2 .8-1.4-.3-1.9-.8-.8-1.2-.8-1.9c0-.8.3-1.4.8-1.9.5-.6 1.2-.8 1.9-.8zM548.1 327.3h3.2v34.1h-4.5V335l-11.6 11.7-11.7-11.7v26.4H519v-34.1h3.2l12.9 13 13-13zM570 331.6l-.9-.3c-.3-.1-.6-.1-.9-.1-1.1 0-2.1.4-2.9 1.2-.8.8-1.2 1.8-1.2 2.9 0 .8.2 1.5.5 2s.8 1 1.3 1.4c.5.4 1.1.7 1.8 1 .6.3 1.3.6 1.9.8 1.2.6 2.4 1.1 3.5 1.7 1.1.6 2 1.3 2.9 2.1.8.8 1.4 1.8 1.9 2.9.5 1.1.7 2.4.7 4 0 1.4-.3 2.8-.8 4.1-.5 1.3-1.3 2.5-2.4 3.5-1 1-2.1 1.8-3.5 2.4-1.3.5-2.7.8-4.1.8-1 0-1.9-.1-2.9-.4-.9-.3-1.8-.6-2.6-1.1-1.7-1-3-2.4-4-4.1v-.1l4-2.2.1.1c.5.9 1.2 1.7 2.2 2.3 1 .6 2.1.8 3.2.8.9 0 1.7-.1 2.4-.4.8-.3 1.4-.8 2-1.4 1.2-1.2 1.9-2.7 1.9-4.4 0-1-.2-1.8-.5-2.5-.4-.7-.8-1.3-1.4-1.8-.6-.5-1.3-.9-2-1.2-.8-.3-1.5-.7-2.3-1-1.1-.5-2.1-1-3.1-1.5s-1.9-1.1-2.6-1.8c-.8-.7-1.4-1.5-1.8-2.5-.4-1-.7-2.2-.7-3.5 0-1.1.2-2.2.7-3.3.4-1.1 1.1-2 1.8-2.8 1.7-1.7 3.7-2.6 6.1-2.6 1.3 0 2.6.3 3.7.8 1.2.6 2.2 1.4 3 2.4l-3.5 2.8c-.4-.3-.9-.7-1.5-1zM495.6 281h78v9.4h-78zM495.6 399.6h78v9.4h-78z"/><g><path class="st0" d="M7.2 339.9c1.5-.5 3-.8 4.5-.8s3 .2 4.4.7c1.5.5 2.8 1.3 3.9 2.3 1.2 1.1 2.1 2.4 2.7 3.9.6 1.5.8 3 .8 4.6 0 1.6-.3 3-.9 4.4-.6 1.4-1.4 2.6-2.5 3.7s-2.3 1.9-3.7 2.5c-1.4.6-2.8.8-4.4.8-2.3 0-4.5-.7-6.5-2-1.9-1.3-3.3-3-4.2-5.2v.2l4.1-1.6.1.1c.5 1.3 1.4 2.3 2.6 3.1 1.1.8 2.4 1.2 3.9 1.2 1.9 0 3.6-.7 4.9-2s2-3 2-4.9c0-1-.1-1.9-.5-2.9-.3-.9-.8-1.7-1.6-2.4-.6-.6-1.4-1-2.3-1.4-1-.3-2-.5-2.9-.5-1.1 0-2.2.2-3.3.6-1.1.4-2 1-2.8 1.8l-.7.7-3.1-1.8.2-1L5 327.3h15.3v4.4H8.7l-1.5 8.2zM35.9 327.3H39v34.1h-4.5v-29.6h-4.3l1.1-4.5h4.6zM53.9 340.8c-1.5-1.6-2.3-3.5-2.3-5.7 0-1.1.2-2.2.7-3.2.5-1 1.1-1.9 1.8-2.7s1.7-1.4 2.7-1.8c1-.5 2.1-.7 3.2-.7s2.2.2 3.2.7c1 .4 1.9 1.1 2.7 1.8s1.4 1.6 1.8 2.7c.5 1 .7 2.1.7 3.2 0 2.2-.8 4.1-2.3 5.7 1.7 1.1 3 2.5 3.9 4.2.9 1.7 1.4 3.6 1.4 5.5 0 1.6-.3 3.1-.9 4.5-.6 1.4-1.4 2.6-2.5 3.6-1 1-2.3 1.9-3.7 2.5-1.4.6-2.9.9-4.4.9-1.6 0-3.1-.3-4.5-.9-1.4-.6-2.6-1.4-3.7-2.4s-1.9-2.2-2.5-3.6c-.6-1.4-.9-2.9-.9-4.5 0-1.9.5-3.8 1.4-5.5 1.2-1.8 2.5-3.2 4.2-4.3zm6.2 2.8c-1 0-1.9.2-2.7.6-.8.4-1.6.9-2.2 1.5-.6.6-1.1 1.4-1.5 2.2-.4.9-.5 1.8-.5 2.7 0 1 .2 1.9.6 2.7.4.8.9 1.6 1.5 2.2.6.6 1.4 1.1 2.2 1.5.8.4 1.7.5 2.7.5.9 0 1.8-.2 2.7-.5.8-.4 1.6-.9 2.2-1.5.6-.6 1.2-1.4 1.5-2.2.4-.8.6-1.7.6-2.7 0-.9-.2-1.8-.6-2.7-.4-.8-.9-1.6-1.5-2.2-.6-.6-1.4-1.1-2.2-1.5-1-.4-1.9-.6-2.8-.6zm0-4.6c1 0 1.9-.4 2.7-1.1.8-.8 1.2-1.7 1.2-2.8 0-1-.4-1.9-1.2-2.7-.8-.8-1.7-1.2-2.7-1.2-1.1 0-2 .4-2.8 1.2-.8.8-1.1 1.7-1.1 2.7 0 1.1.4 2 1.1 2.8.8.7 1.7 1.1 2.8 1.1z"/></g><path class="st0" d="M0 281h78v9.4H0zM0 399.6h78v9.4H0z"/><g><path class="st1" d="M43.2 161.2c2.7-3.4 3-5.6-1.2-9l-24.2-19.5-.3.4c-5.4 6.7-2.2 13 1.9 19l-.2.2-10.1-9.4 22.6-28.1 11.4 7.8-.1.3c-6.7-2.8-13.5-4.5-19 2.2l-.3.4L47.8 145c4.2 3.4 6.3 2.7 9-.7l.3.2-13.6 16.9-.3-.2zM70.5 128.5c3.3-2.8 3.1-4.5 0-8.1l-16.7-19.3c-3.1-3.6-4.7-4-8-1.2l-.2-.3 15-13 .2.3c-3.3 2.9-3.1 4.5 0 8.1l8 9.3 13.5-11.7-8-9.3c-3.1-3.6-4.7-4-8-1.2l-.2-.3 15-12.9.2.3c-3.3 2.8-3.1 4.5 0 8.1L98 96.6c3.1 3.6 4.7 4 8 1.2l.2.3-15 12.9-.2-.3c3.3-2.9 3.1-4.5 0-8.1L82.8 93l-13.5 11.7 8.3 9.6c3.1 3.6 4.7 4 8 1.2l.2.3-15 13-.3-.3zM116.7 90.7c3.8-2.2 3.9-3.9 1.4-7.9l-13-22c-2.4-4.1-3.9-4.8-7.7-2.6l-.2-.3 28.9-17.1 7.2 10.4-.2.2c-5-5.3-11.1-7.6-19.2-2.8l-3.9 2.3 9.5 16 1.5-.9c6.1-3.6 6.9-8.5 5.2-13.5l.3-.2 9.4 15.9-.3.2c-3.6-3.9-8.2-5.6-14.3-1.9l-1.4.9 9.5 16 4.2-2.5c8.6-5.1 8.2-12.5 6.5-19.1l.3-.1 5.8 12.2L116.9 91l-.2-.3zM182.4 56.9c4.2-1.2 4.7-2.8 3.4-7.4L178.6 25c-1.3-4.5-2.6-5.6-6.8-4.4l-.1-.4 32-9.4 4.5 12-.3.1c-3.6-6.5-9.3-10.2-18-7.7l-4.1 1.2 5.4 18.4 1.4-.4c6.9-2 8.7-6.7 8.3-12l.2-.1 5.3 17.9-.2.1c-2.6-4.6-6.6-7.5-13.5-5.5l-1.4.4 3.2 11c1.5 5.2 3.7 5.8 7.8 4.6l.1.4-20 5.9v-.2zM221.1 45.2c6.5-1 7.9-7.9 9.8-14.6L238 3.8l.4-.1L257 31.5c2.4 3.6 5.4 7.4 9.3 6.9l.1.4-21.7 3.2-.1-.4c4.5-.7 4.9-4.3 2.3-8.4l-2.6-4-13 1.9-.3 1.2c-1.3 6.2-.1 11.3 7 10.3l.1.4-16.9 2.5-.1-.3zm22.8-16.5l-8.4-13-3.9 14.9 12.3-1.9zM278.6 25.4l.3-18.1c.1-4.7-.8-6.9-5.2-6.9V0l19.9.3v.4c-4.4-.1-5.3 2-5.4 6.8l-.3 20.2c-.1 6.5 2.4 10.9 9.1 11 6.4.1 11.3-3.8 11.4-12.3l.1-8.9c.2-13-.7-16.5-7.7-16.6V.5l16.5.3v.4c-7.2-.1-8 3.6-8.2 16.4l-.1 8.9c-.1 8.9-5.2 13.4-14.6 13.2-8.8-.3-16-4.3-15.8-14.3zM327 40.2c4.3.8 5.5-.4 6.3-5.1l4.5-25.1c.8-4.7.2-6.2-4.1-6.9l.1-.4 20.5 3.7-.1.4c-4.3-.8-6.3.1-7.3 5.4l-5.5 30.6 3.8.7c9.2 1.7 14.8-3.5 17.6-10.3l.2.1-3.3 13.3-32.7-6v-.4zM373.1 49.3c4.1 1.5 5.4.5 7-4l8.6-24c1.6-4.5 1.2-6.1-2.9-7.5l.1-.4 18.7 6.7-.1.4c-4.1-1.5-5.4-.5-7 4l-5.4 15.1 13.4-6.3c4.7-2.2 7.7-4.4 8.5-6.4.6-1.6-.3-3.1-3.6-4.3l.1-.4 16.6 5.9-.1.4c-3.3-1.2-6.6-.8-10 .3-3.1 1-6.6 2.6-10.9 4.7l-1.8.8 5.8 22.5c1.2 4.6 2.7 6.7 4.9 7.5l-.1.4-13.7-4.9-5.2-21.5-4.1 2-3 8.3c-1.6 4.5-1.2 6.1 2.9 7.5l-.1.4-18.7-6.8.1-.4zM423.2 68.3c6.2 3.6 8.7.7 15.3-10.7l5.6-9.8c3.2-5.5 3.4-9.1-1.7-12l.2-.3 11.8 6.7 7.1 32.1 3.5-6.2c6.6-11.5 7.7-15 1.5-18.6l.2-.3 14.3 8.2-.2.3c-6.2-3.6-8.7-.8-15.3 10.7l-10.8 18.8-.3-.1-8.9-40.5-6.5 11.3c-6.6 11.5-7.7 15-1.5 18.6l-.2.3-14.3-8.2.2-.3zM470.7 97c3.4 2.8 5 2.3 8-1.4l16.2-19.7c3-3.7 3.2-5.3-.2-8.1l.2-.3 25.9 21.3-7.3 10.3-.2-.1c3.3-6.6 3.4-13-3.9-19l-3.5-2.8-11.8 14.4 1.3 1.1c5.5 4.5 10.3 3.5 14.5.2l.2.2-11.7 14.2-.2-.2c2.5-4.8 2.4-9.6-3.1-14.1l-1.3-1.1-11.8 14.3 3.8 3.1c7.7 6.4 14.6 3.4 20.1-.4l.2.2-9.5 9.6-26.2-21.5.3-.2zM508.2 128.9c2.9 3.3 4.5 3.1 8.1 0l19.3-16.7c3.6-3.1 4-4.7 1.1-8l.3-.2 13.5 15.6c7.8 9 8.3 15.6 3.6 19.6-6.1 5.3-13-.6-17.9-5.7l-.2.2c9.3 10.8 5.4 11.9.6 19.8-2.1 3.5-2.5 5.3-.1 8.2l-.3.2-8.9-10.3c.6-1.7 1.8-3.6 3.6-6.3 5.3-7.4 7.2-9.1 2.8-14.1l-2.5-2.9-8.9 7.7c-3.6 3.1-4 4.7-1.1 8l-.3.2-13-15 .3-.3zm26.4 2.5c4.3 5 9.5 3.7 13.2.5 3.8-3.3 5.7-8.3 1.2-13.5l-2.8-3.2-14.6 12.7 3 3.5z"/></g><g><path class="st1" d="M17.2 534.7l-5.3 1.3-1.1-1.5-.5-.7 1.2-.3 19-4.6.6.9-10.5 16.5-.7 1-.5-.7-1.1-1.5 2.9-4.6-4-5.8zm2.7-.6l2.9 4.1 3.6-5.7-6.5 1.6zM51.5 555.4l1.7 1.9-14.6 12.6-1.2-1.4 3.5-17.9-10.9 9.3-1.7-1.9 14.6-12.6 1.2 1.4-3.5 17.9 10.9-9.3zM76 580.2l-13 14.3-1.9-1.7L74 578.5l1.4 1.3.6.4zM95.9 597l2 1.6L86 613.7l-1.5-1.2v-18.3l-8.9 11.3-2-1.6 11.9-15.1L87 590v18.2l8.9-11.2zM111.9 611.4c-.1-.1-.2-.3-.3-.4-.1-.1-.2-.2-.4-.3-.5-.4-1.1-.5-1.8-.3-.6.1-1.1.5-1.5 1-.2.4-.4.7-.4 1.1s0 .7.2 1.1c.1.4.3.7.5 1 .2.3.4.7.6 1 .4.7.8 1.3 1.1 1.9.3.6.6 1.2.7 1.9.1.6.1 1.3 0 1.9-.1.7-.4 1.4-.9 2.1-.5.7-1 1.2-1.7 1.7-.7.4-1.4.7-2.2.9-.8.2-1.6.2-2.4 0-.8-.2-1.5-.5-2.2-.9-.5-.3-.9-.7-1.2-1.1-.4-.4-.6-.9-.9-1.4-.5-1-.7-2.1-.6-3.2l2.5.2v.1c-.1.6 0 1.2.3 1.8.3.6.7 1.1 1.3 1.4.4.3.8.5 1.3.5.5.1.9.1 1.4 0 1-.2 1.7-.7 2.3-1.5.3-.5.5-.9.5-1.3s0-.9-.1-1.3-.3-.8-.6-1.2c-.2-.4-.5-.8-.7-1.2-.4-.6-.7-1.1-1-1.7-.3-.6-.5-1.1-.7-1.7-.1-.6-.2-1.1 0-1.7.1-.6.4-1.2.8-1.9.4-.5.8-1 1.3-1.3.5-.4 1.1-.6 1.7-.7 1.3-.3 2.6 0 3.7.7.6.4 1.1.9 1.5 1.6.4.6.6 1.3.7 2.1l-2.5.2c0-.5-.1-.8-.3-1.1zM122.6 637.8l-2.2-1.3 8.3-14.5-4-2.3 1.3-2.2 10.2 5.8-1.3 2.2-4-2.3-8.3 14.6zM141.8 642.4l-4 3.6-1.6-.8-.8-.4.9-.8 14.5-13.2 1 .5-1.2 19.5-.1 1.2-.8-.4-1.6-.8.3-5.4-6.6-3zm2-1.9l4.6 2.2.4-6.8-5 4.6zM181.8 644l2.4.9-6.8 18-1.8-.7-5.6-17.4-5 13.4-2.4-.9 6.8-18 1.8.7 5.5 17.4 5.1-13.4zM205.2 670.4c-.8.2-1.7.3-2.6.3-.9 0-1.7-.1-2.6-.4-1.3-.4-2.5-.9-3.5-1.7-1-.8-1.9-1.8-2.5-3-.7-1.2-1.1-2.4-1.2-3.7-.2-1.3-.1-2.6.3-3.9.4-1.3.9-2.4 1.7-3.5.8-1 1.8-1.9 2.9-2.6 1.2-.7 2.4-1.1 3.7-1.2 1.3-.2 2.6-.1 3.9.3.9.2 1.7.6 2.4 1 .8.5 1.4 1 2 1.6.6.6 1.1 1.2 1.5 1.9.4.7.7 1.4 1 2.2l-2.4.7c-.2-.6-.4-1.1-.7-1.6s-.7-1-1.1-1.4c-1-1-2.1-1.6-3.3-2-1-.3-1.9-.3-2.9-.2-1 .1-1.9.4-2.7.9-.9.5-1.6 1.1-2.2 1.9-.6.8-1 1.6-1.3 2.6-.3 1-.3 1.9-.2 2.9.1 1 .4 1.9.9 2.7.5.9 1.1 1.6 1.9 2.2.8.6 1.6 1 2.6 1.3 1.3.4 2.6.4 3.9 0 .6-.2 1.2-.4 1.8-.8.6-.3 1.1-.7 1.6-1.2l1.8 1.8c-1.5 1.6-3 2.5-4.7 2.9zM225.7 666.1l4.9.9-.5 2.5-4.9-.9-.9 4.6 6.5 1.2-.5 2.5-9-1.7 3.6-18.9 9 1.7-.5 2.5-6.5-1.2-1.2 6.8zM266.1 662l-1.4 19.2-2.5-.2 1.4-19.2 2 .1.5.1zM292.1 662.9h2.6v19.3h-1.9l-11.3-14.4v14.3H279v-19.3h1.9l11.3 14.4-.1-14.3zM334 679.1l-2.5.3-2.3-16.6-4.6.6-.3-2.5 11.7-1.6.3 2.5-4.6.6 2.3 16.7zM350.7 656.8l3.8 18.9-2.5.5-3.8-18.9 1.9-.4.6-.1zM379.3 649.8l1.7-.5 5 18.6-2.5.7-3.9-14.4-4.6 8.1-8.1-4.7 3.9 14.4-2.4.7-5-18.6 1.7-.5 9 5.2 5.2-9zM398.5 653.5l4.7-1.7.9 2.4-4.7 1.7 1.6 4.4 6.2-2.3.9 2.4-8.6 3.1-6.6-18.1 8.6-3.1.9 2.4-6.2 2.3 2.3 6.5zM448.6 633.2c.8.7 1.5 1.5 2 2.5s.9 2.1 1 3.2c.1 1.1 0 2.2-.4 3.3-.3 1.1-.9 2.1-1.6 2.9-.7.9-1.6 1.6-2.6 2.1s-2.1.9-3.2 1c-1.1.1-2.2 0-3.3-.4s-2.1-.9-2.9-1.6c-.9-.7-1.6-1.6-2.1-2.6l-.3-.5c-.4-.9-.7-1.9-.7-2.9-.1-1 .1-2 .4-3 .1-.4.3-.8.5-1.2.2-.4.4-.7.6-1.1-.1 0-.2 0-.4-.1-.8-.2-1.5-.6-2.1-1.1-.6-.5-1.1-1.1-1.5-1.8s-.6-1.5-.7-2.3c-.1-.8 0-1.6.2-2.4.5-1.6 1.5-2.8 3-3.6.7-.4 1.5-.6 2.3-.7s1.6 0 2.4.3 1.5.6 2.1 1.1c.6.5 1.1 1.1 1.5 1.8l.3.6-2.2 1.2-.3-.6c-.5-.9-1.2-1.4-2.1-1.7-.9-.3-1.8-.2-2.7.3-.9.5-1.5 1.2-1.8 2.1-.3.9-.2 1.8.3 2.7.5.9 1.2 1.4 2.1 1.7.9.3 1.8.2 2.6-.2l.7-.4 1.2 2.3-.6.3c-.7.4-1.3.9-1.8 1.5s-.9 1.3-1.1 2c-.2.8-.3 1.5-.2 2.2s.3 1.5.6 2.2l.1.1c.4.7.9 1.3 1.5 1.8s1.3.9 2 1.1 1.5.3 2.3.2c.8-.1 1.5-.3 2.3-.7.7-.4 1.3-.9 1.8-1.5s.9-1.3 1.1-2c.2-.7.3-1.5.2-2.3-.1-.8-.3-1.5-.7-2.3-.4-.7-.8-1.3-1.4-1.8-.2-.1-.3-.2-.5-.3-.2-.1-.3-.2-.5-.3-.1.2-.2.4-.3.7-.1.3-.3.7-.3 1.1-.1.4-.1.7-.1 1 0 .3.1.5.3.6l.6.3-1 2.3-.6-.3c-.7-.3-1.2-.7-1.5-1.3-.3-.5-.4-1.1-.4-1.8 0-.6.1-1.3.3-1.9s.4-1.3.6-1.8l.3-.6.3-.6.1-.1c.1-.2.2-.4.3-.5.1-.2.2-.4.2-.6.1-.2.2-.4.3-.7.1-.3.2-.7.3-1.1.1-.4.1-.7.1-1 0-.3-.1-.5-.3-.6l-.6-.3 1-2.3.7.3c.7.3 1.2.8 1.5 1.3.3.5.4 1.1.4 1.8 0 .6-.1 1.3-.3 1.9-.2.7-.4 1.2-.7 1.8.5.6 1 1 1.4 1.3zM483.2 620.6l-2.1 1.5-11.3-15.6 4.2-3.1c.7-.5 1.4-.8 2.2-1 .8-.2 1.6-.2 2.4-.1.8.1 1.6.4 2.3.9.7.4 1.3 1 1.8 1.7s.8 1.4 1 2.2c.2.8.2 1.6.1 2.5-.1.8-.4 1.6-.8 2.3-.4.7-1 1.3-1.7 1.8l-2.2 1.6 4.1 5.3zm-5.4-7.5l2.2-1.6c.8-.6 1.3-1.4 1.5-2.4.2-1-.1-2-.7-2.8-.3-.4-.6-.7-1.1-1-.4-.3-.9-.4-1.4-.5-1-.2-1.9.1-2.8.7l-2.2 1.6 4.5 6zM508.3 601l-7.4 6.3-12.4-14.7 1.9-1.6 10.8 12.8 5.5-4.6.4.4 1.2 1.4zM518 585.4l2.1 5-1.3 1.3-.6.6-.5-1.1-7.5-18.1.8-.8 18 7.8 1.1.5-.6.6-1.3 1.3-5-2.1-5.2 5zm-1-2.5l3.6-3.6-6.2-2.7 2.6 6.3zM547 560.2c-.2.8-.4 1.7-.8 2.5s-.8 1.5-1.4 2.2c-.9 1-1.9 1.8-3 2.4-1.2.6-2.4.9-3.8 1-1.3.1-2.6 0-3.9-.4s-2.4-1-3.4-1.9c-1-.9-1.8-1.9-2.4-3-.6-1.2-1-2.4-1.1-3.8-.1-1.3.1-2.6.5-3.9s1-2.4 1.9-3.4c.6-.7 1.2-1.3 2-1.8s1.5-.9 2.3-1.2c.8-.3 1.5-.5 2.3-.5.8-.1 1.6-.1 2.4.1l-.4 2.5c-.6-.1-1.2-.1-1.8 0-.6.1-1.2.2-1.7.4-1.3.5-2.4 1.2-3.2 2.2-.7.8-1.1 1.6-1.4 2.5-.3.9-.4 1.9-.3 2.9.1 1 .3 1.9.8 2.8s1 1.6 1.8 2.3c.8.7 1.6 1.1 2.5 1.4.9.3 1.9.4 2.9.3 1-.1 1.9-.3 2.8-.8.9-.4 1.6-1 2.3-1.8.9-1 1.4-2.2 1.7-3.5.1-.6.1-1.3.1-2s-.2-1.3-.4-1.9l2.4-.9c.5 1.8.6 3.5.3 5.3zM551.9 539.7l2.9-4.1 2.1 1.5-2.9 4.1 3.8 2.7 3.9-5.4 2.1 1.5-5.3 7.4-15.6-11.3 5.3-7.4 2.1 1.5-3.9 5.4 5.5 4.1z"/></g><path class="st1" d="M356.8 274.4v123.3h-2.1c-5.8-31.5-20.3-54.3-53.2-60.6V335c32.9-6.3 47.4-28.8 53.2-60.6h2.1zM402.3 286.6l-2.1.4c-10.6-47.6-34.8-80.9-98.7-82.5v-2.1h95.3l5.5 84.2zM266.8 448.7V202.4h-90.5v2.9c32.8 0 37.9 9.7 37.9 39.6v205.8c0 29.9-5.1 39.6-37.9 39.6v2.5h132.6v-2.5c-32.9 0-42.1-9.2-42.1-41.6zm-39.3-225.8h3.7l-3.7 3.7v-3.7zm0 6.5l6.4-6.5h16.2l-22.7 22.7v-16.2zm24.3 238l-1.4 1.4h-16.2l17.6-17.6v16.2zm0-18.9l-20.3 20.3h-4v-12.3l24.3-24.3v16.3zm0-19l-24.3 24.3v-16.2l24.3-24.3v16.2zm0-18.9l-24.3 24.3v-16.2l24.3-24.3v16.2zm0-18.9L227.5 416v-16.2l24.3-24.3v16.2zm0-18.9L227.5 397v-16.2l24.3-24.3v16.3zm0-19l-24.3 24.3v-16.2l24.3-24.3v16.2zm0-18.9l-24.3 24.3V343l24.3-24.3v16.2zm0-18.9l-24.3 24.3V324l24.3-24.3V316zm0-18.9l-24.3 24.3v-16.2l24.3-24.3v16.2zm0-19l-24.3 24.3v-16.2l24.3-24.3v16.2zm0-18.9l-24.3 24.3v-16.2l24.3-24.3v16.2zm0-18.9l-24.3 24.3v-16.2l24.3-24.3v16.2z"/></svg>